<svg width="1280" height="472" viewBox="0 0 1280 472" fill="none" xmlns="http://www.w3.org/2000/svg">
<path d="M-77.2046 380.483V332.202V185.571H-25.14V332.202H-16.1633V241.005H35.9014V332.202H28.2041L19.6278 135.523L85.076 209.841L123.873 285.709H161.575V244.581H217.23V332.202H225.029C225.223 261.176 232.169 145.477 275.373 145.477C294.557 145.477 306.645 167.275 314.178 197.744V85.4335H324.95V65.7635H346.494V30H384.196V65.7635H405.74V85.4335H416.512V323.261H423.693V288.522C423.693 278.642 427.284 269.743 434.465 263.396V258.602C434.465 246.486 443.375 236.436 454.95 234.385L457.975 210.735L460.813 234.017C474.133 234.394 484.734 245.243 484.734 258.601V265.263C490.12 271.438 493.711 279.571 493.711 288.52V241.134C493.711 230.026 499.097 220.076 506.278 213.201V209.841C506.278 197.52 515.666 187.376 527.636 185.904L530.688 163.736L533.598 185.904C545.566 187.377 554.752 197.524 554.752 209.842V213.202C561.934 220.078 567.32 230.027 567.32 241.135V288.522C567.32 279.574 570.91 271.44 576.296 265.265V258.602C576.296 245.245 587.099 234.396 600.418 234.019L603.399 210.736L606.282 234.387C617.856 236.436 626.567 246.487 626.567 258.604V263.398C633.749 269.743 637.339 278.644 637.339 288.524V323.261H646.316V142.659C646.316 142.659 700.433 172.055 727.896 246.369H773.783V341.143H777.373V187.36H854.573V341.143H876.117V235.64H921V380.238V381.944V393H-79V380.483H-77.2046Z" fill="#1C1C1C"/>
<path d="M1277.7 455.724V392.946V202.286H1211.11V392.946H1199.63V274.365H1133.04V392.946H1142.89L1153.86 137.209L1070.15 233.842L1020.53 332.493H972.305V279.015H901.122V392.946H891.147C890.899 300.592 882.015 150.152 826.756 150.152C802.221 150.152 786.761 178.495 777.126 218.113V72.0788H763.348V46.5025H735.793V0H687.573V46.5025H660.018V72.0788H646.24V381.32H637.056V336.15C637.056 323.304 632.463 311.732 623.278 303.48V297.246C623.278 281.491 611.882 268.424 597.078 265.757L593.209 235.005L589.579 265.278C572.543 265.769 558.984 279.875 558.984 297.244V305.907C552.095 313.936 547.503 324.51 547.503 336.148V274.532C547.503 260.088 540.614 247.151 531.429 238.211V233.842C531.429 217.822 519.422 204.632 504.113 202.718L500.209 173.894L496.487 202.718C481.181 204.634 469.431 217.827 469.431 233.845V238.214C460.246 247.154 453.357 260.091 453.357 274.534V336.15C453.357 324.515 448.765 313.938 441.876 305.909V297.246C441.876 279.877 428.06 265.771 411.024 265.28L407.212 235.007L403.524 265.759C388.721 268.424 377.579 281.493 377.579 297.248V303.482C368.394 311.732 363.802 323.306 363.802 336.152V381.32H352.321V146.487C352.321 146.487 283.106 184.71 247.98 281.34H189.291V404.571H184.698V204.611H85.9605V404.571H58.4057V267.389H1V455.406V457.624V472H1280V455.724H1277.7Z" fill="#1E1E1E"/>
</svg>
