<svg width="30" height="37" viewBox="0 0 30 37" fill="none" xmlns="http://www.w3.org/2000/svg">
<path fill-rule="evenodd" clip-rule="evenodd" d="M18.913 0.324561C18.913 2.47557 17.1611 4.2193 15 4.2193C12.8389 4.2193 11.087 2.47557 11.087 0.324561C11.087 0.215264 11.0915 0.107019 11.1004 0H10.1087C6.50684 0 3.58696 2.90622 3.58696 6.49123V10.0747C1.57841 10.2397 0 11.9144 0 13.9561C0 15.9979 1.57841 17.6726 3.58696 17.8375V37H15.163C21.5563 37 26.7391 31.8415 26.7391 25.4781V17.797C28.5898 17.488 30 15.886 30 13.9561C30 12.0263 28.5898 10.4243 26.7391 10.1152V6.49123C26.7391 2.90622 23.8193 0 20.2174 0H18.8996C18.9085 0.107019 18.913 0.215264 18.913 0.324561Z" fill="white"/>
</svg>
