<svg width="18" height="18" viewBox="0 0 18 18" fill="none" xmlns="http://www.w3.org/2000/svg">
<g clip-path="url(#clip0_2672_4763)">
<path d="M18 7.29243V14.2494C17.9988 15.2436 17.6033 16.1968 16.9003 16.8998C16.1973 17.6028 15.2442 17.9982 14.25 17.9994H13.5C13.3011 17.9994 13.1103 17.9204 12.9697 17.7798C12.829 17.6391 12.75 17.4483 12.75 17.2494C12.75 17.0505 12.829 16.8598 12.9697 16.7191C13.1103 16.5785 13.3011 16.4994 13.5 16.4994H14.25C14.8467 16.4994 15.419 16.2624 15.841 15.8404C16.263 15.4185 16.5 14.8462 16.5 14.2494V7.29243C16.5 6.92412 16.4096 6.56144 16.2368 6.23622C16.0639 5.911 15.8138 5.63319 15.5085 5.42718L10.2585 1.88493C9.88753 1.63204 9.44898 1.49677 9 1.49677C8.55103 1.49677 8.11247 1.63204 7.7415 1.88493L2.4915 5.42718C2.18619 5.63319 1.93613 5.911 1.76325 6.23622C1.59038 6.56144 1.49998 6.92412 1.5 7.29243V14.2494C1.5 14.8462 1.73706 15.4185 2.15901 15.8404C2.58097 16.2624 3.15327 16.4994 3.75 16.4994H4.5C4.69892 16.4994 4.88968 16.5785 5.03033 16.7191C5.17099 16.8598 5.25 17.0505 5.25 17.2494C5.25 17.4483 5.17099 17.6391 5.03033 17.7798C4.88968 17.9204 4.69892 17.9994 4.5 17.9994H3.75C2.75581 17.9982 1.80267 17.6028 1.09967 16.8998C0.396664 16.1968 0.00119383 15.2436 2.9378e-06 14.2494V7.29243C-0.000765719 6.67872 0.149312 6.07423 0.437031 5.53214C0.72475 4.99005 1.14129 4.52698 1.65 4.18368L6.9 0.640683C7.51895 0.220648 8.24974 -0.00390625 8.99775 -0.00390625C9.74577 -0.00390625 10.4766 0.220648 11.0955 0.640683L16.3455 4.18368C16.8547 4.5268 17.2719 4.98972 17.5604 5.53176C17.8489 6.07381 17.9998 6.6784 18 7.29243V7.29243ZM14.25 11.2547C14.2519 11.9443 14.117 12.6275 13.8531 13.2646C13.5892 13.9017 13.2015 14.4802 12.7125 14.9664L10.0763 17.5449C9.78766 17.8244 9.4017 17.9806 9 17.9806C8.5983 17.9806 8.21235 17.8244 7.92375 17.5449L5.2935 14.9724C4.6818 14.3626 4.23 13.6113 3.97814 12.7851C3.72629 11.959 3.68217 11.0834 3.8497 10.236C4.01723 9.38872 4.39122 8.59581 4.93853 7.92762C5.48584 7.25943 6.18955 6.73659 6.98729 6.40546C7.78503 6.07433 8.65214 5.94513 9.51175 6.02932C10.3714 6.11352 11.1969 6.4085 11.9153 6.88812C12.6336 7.36774 13.2225 8.01718 13.6298 8.77886C14.037 9.54055 14.2501 10.391 14.25 11.2547V11.2547ZM12.75 11.2547C12.75 10.638 12.5979 10.0309 12.3073 9.48699C12.0166 8.94312 11.5963 8.47934 11.0835 8.13671C10.5708 7.79408 9.98148 7.58319 9.36778 7.52271C8.75408 7.46223 8.13494 7.55403 7.56519 7.78998C6.99544 8.02593 6.49268 8.39875 6.10142 8.87541C5.71017 9.35207 5.4425 9.91786 5.32213 10.5227C5.20176 11.1275 5.23241 11.7526 5.41135 12.3428C5.59029 12.9329 5.91201 13.4698 6.348 13.9059L8.973 16.4724L11.658 13.8999C12.0057 13.553 12.2812 13.1406 12.4687 12.6866C12.6561 12.2325 12.7517 11.7459 12.75 11.2547V11.2547ZM11.25 11.2494C11.25 11.6944 11.118 12.1295 10.8708 12.4995C10.6236 12.8695 10.2722 13.1579 9.86104 13.3282C9.44991 13.4985 8.99751 13.543 8.56105 13.4562C8.12459 13.3694 7.72368 13.1551 7.40901 12.8404C7.09434 12.5258 6.88005 12.1248 6.79324 11.6884C6.70642 11.2519 6.75098 10.7995 6.92127 10.3884C7.09157 9.97726 7.37996 9.62586 7.74997 9.37863C8.11998 9.13139 8.555 8.99943 9 8.99943C9.59674 8.99943 10.169 9.23649 10.591 9.65844C11.013 10.0804 11.25 10.6527 11.25 11.2494Z" fill="#C1C1C1"/>
</g>
<defs>
<clipPath id="clip0_2672_4763">
<rect width="18" height="18" fill="white"/>
</clipPath>
</defs>
</svg>
