<svg width="919" height="400" viewBox="0 0 919 400" fill="none" xmlns="http://www.w3.org/2000/svg">
<path fill-rule="evenodd" clip-rule="evenodd" d="M7.62939e-05 61.3257C33.3476 61.3257 60.3812 34.926 60.3812 2.3602C60.3812 1.56974 60.3652 0.782907 60.3337 0H849.005C848.974 0.782858 848.958 1.56964 848.958 2.36005C848.958 34.9258 875.991 61.3256 909.339 61.3256C912.627 61.3256 915.854 61.0689 919 60.5749V255.481C915.854 254.987 912.627 254.73 909.339 254.73C875.991 254.73 848.958 281.13 848.958 313.696C848.958 323.953 851.64 333.599 856.356 342H62.644C67.3602 333.599 70.0421 323.953 70.0421 313.696C70.0421 281.13 43.0085 254.73 9.66098 254.73C6.37264 254.73 3.14569 254.987 0 255.481V61.3257C2.54313e-05 61.3257 5.08626e-05 61.3257 7.62939e-05 61.3257Z" fill="#1A1A1A"/>
<mask id="path-2-inside-1_2874_6080" fill="white">
<path fill-rule="evenodd" clip-rule="evenodd" d="M28.9832 79.4856C60.2273 79.4856 85.5557 57.4555 85.5557 30.2799C85.5557 29.6217 85.5409 28.9664 85.5114 28.3145H824.437C824.407 28.9651 824.393 29.6191 824.393 30.276C824.393 57.4516 849.721 79.4817 880.965 79.4817C884.046 79.4817 887.07 79.2675 890.017 78.8552V241.501C887.07 241.089 884.046 240.875 880.965 240.875C849.721 240.875 824.393 262.905 824.393 290.081C824.393 298.643 826.907 306.695 831.329 313.708H87.6707C92.0924 306.695 94.6069 298.643 94.6069 290.081C94.6069 262.905 69.2785 240.875 38.0343 240.875C34.9535 240.875 31.9302 241.089 28.983 241.501V79.4856C28.9831 79.4856 28.9831 79.4856 28.9832 79.4856Z"/>
</mask>
<path d="M85.5114 28.3145V26.3145H83.4191L83.5135 28.4047L85.5114 28.3145ZM824.437 28.3145L826.435 28.4046L826.529 26.3145H824.437V28.3145ZM890.017 78.8552H892.017V76.556L889.74 76.8745L890.017 78.8552ZM890.017 241.501L889.74 243.482L892.017 243.801V241.501H890.017ZM831.329 313.708V315.708H834.954L833.021 312.641L831.329 313.708ZM87.6707 313.708L85.9789 312.641L84.0452 315.708H87.6707V313.708ZM28.983 241.501H26.983V243.801L29.2601 243.482L28.983 241.501ZM28.983 79.4856V77.4856H26.983V79.4856H28.983ZM83.5557 30.2799C83.5557 56.098 59.3939 77.4856 28.9832 77.4856V81.4856C61.0608 81.4856 87.5557 58.813 87.5557 30.2799H83.5557ZM83.5135 28.4047C83.5415 29.0266 83.5557 29.6518 83.5557 30.2799H87.5557C87.5557 29.5916 87.5402 28.9062 87.5094 28.2242L83.5135 28.4047ZM824.437 26.3145H85.5114V30.3145H824.437V26.3145ZM826.393 30.276C826.393 29.6491 826.407 29.0252 826.435 28.4046L822.439 28.2243C822.408 28.9051 822.393 29.5891 822.393 30.276H826.393ZM880.965 77.4817C850.555 77.4817 826.393 56.0941 826.393 30.276H822.393C822.393 58.8091 848.888 81.4817 880.965 81.4817V77.4817ZM889.74 76.8745C886.885 77.274 883.954 77.4817 880.965 77.4817V81.4817C884.139 81.4817 887.255 81.2611 890.294 80.836L889.74 76.8745ZM892.017 241.501V78.8552H888.017V241.501H892.017ZM880.965 242.875C883.954 242.875 886.885 243.083 889.74 243.482L890.294 239.521C887.255 239.096 884.139 238.875 880.965 238.875V242.875ZM826.393 290.081C826.393 264.263 850.555 242.875 880.965 242.875V238.875C848.888 238.875 822.393 261.548 822.393 290.081H826.393ZM833.021 312.641C828.787 305.927 826.393 298.242 826.393 290.081H822.393C822.393 299.044 825.027 307.463 829.637 314.774L833.021 312.641ZM87.6707 315.708H831.329V311.708H87.6707V315.708ZM92.6069 290.081C92.6069 298.242 90.2122 305.927 85.9789 312.641L89.3624 314.774C93.9725 307.463 96.6069 299.044 96.6069 290.081H92.6069ZM38.0343 242.875C68.445 242.875 92.6069 264.263 92.6069 290.081H96.6069C96.6069 261.548 70.1119 238.875 38.0343 238.875V242.875ZM29.2601 243.482C32.1155 243.083 35.0463 242.875 38.0343 242.875V238.875C34.8608 238.875 31.7449 239.096 28.706 239.521L29.2601 243.482ZM26.983 79.4856V241.501H30.983V79.4856H26.983ZM28.9832 77.4856C28.9832 77.4856 28.9832 77.4856 28.9832 77.4856C28.9832 77.4856 28.9832 77.4856 28.9832 77.4856C28.9832 77.4856 28.9832 77.4856 28.9832 77.4856C28.9832 77.4856 28.9832 77.4856 28.9832 77.4856C28.9832 77.4856 28.9832 77.4856 28.9832 77.4856C28.9832 77.4856 28.9832 77.4856 28.9832 77.4856C28.9832 77.4856 28.9832 77.4856 28.9832 77.4856C28.9832 77.4856 28.9832 77.4856 28.9832 77.4856C28.9832 77.4856 28.9832 77.4856 28.9832 77.4856C28.9832 77.4856 28.9832 77.4856 28.9832 77.4856C28.9832 77.4856 28.9832 77.4856 28.9832 77.4856C28.9832 77.4856 28.9832 77.4856 28.9832 77.4856C28.9832 77.4856 28.9832 77.4856 28.9832 77.4856C28.9832 77.4856 28.9832 77.4856 28.9832 77.4856C28.9832 77.4856 28.9832 77.4856 28.9832 77.4856C28.9832 77.4856 28.9832 77.4856 28.9832 77.4856C28.9832 77.4856 28.9832 77.4856 28.9832 77.4856C28.9832 77.4856 28.9832 77.4856 28.9832 77.4856C28.9832 77.4856 28.9832 77.4856 28.9832 77.4856C28.9832 77.4856 28.9832 77.4856 28.9832 77.4856C28.9832 77.4856 28.9832 77.4856 28.9832 77.4856C28.9832 77.4856 28.9832 77.4856 28.9832 77.4856C28.9832 77.4856 28.9832 77.4856 28.9832 77.4856C28.9832 77.4856 28.9832 77.4856 28.9832 77.4856C28.9832 77.4856 28.9832 77.4856 28.9832 77.4856C28.9832 77.4856 28.9832 77.4856 28.9832 77.4856C28.9832 77.4856 28.9832 77.4856 28.9832 77.4856C28.9832 77.4856 28.9832 77.4856 28.9832 77.4856C28.9832 77.4856 28.9832 77.4856 28.9832 77.4856C28.9832 77.4856 28.9832 77.4856 28.9832 77.4856C28.9832 77.4856 28.9832 77.4856 28.9832 77.4856C28.9832 77.4856 28.9832 77.4856 28.9832 77.4856C28.9832 77.4856 28.9832 77.4856 28.9832 77.4856C28.9832 77.4856 28.9832 77.4856 28.9832 77.4856C28.9832 77.4856 28.9832 77.4856 28.9832 77.4856C28.9832 77.4856 28.9832 77.4856 28.9832 77.4856C28.9832 77.4856 28.9832 77.4856 28.9832 77.4856C28.9832 77.4856 28.9832 77.4856 28.9832 77.4856C28.9832 77.4856 28.9832 77.4856 28.9832 77.4856C28.9832 77.4856 28.9832 77.4856 28.9832 77.4856C28.9832 77.4856 28.9832 77.4856 28.9832 77.4856C28.9832 77.4856 28.9832 77.4856 28.9832 77.4856C28.9832 77.4856 28.9832 77.4856 28.9832 77.4856C28.9832 77.4856 28.9832 77.4856 28.9832 77.4856C28.9832 77.4856 28.9832 77.4856 28.9832 77.4856C28.9832 77.4856 28.9832 77.4856 28.9832 77.4856C28.9832 77.4856 28.9832 77.4856 28.9832 77.4856C28.9832 77.4856 28.9832 77.4856 28.9832 77.4856C28.9832 77.4856 28.9832 77.4856 28.9832 77.4856C28.9832 77.4856 28.9832 77.4856 28.9832 77.4856C28.9832 77.4856 28.9832 77.4856 28.9832 77.4856C28.9832 77.4856 28.9832 77.4856 28.9832 77.4856C28.9832 77.4856 28.9832 77.4856 28.9832 77.4856C28.9832 77.4856 28.9832 77.4856 28.9832 77.4856C28.9832 77.4856 28.9832 77.4856 28.9832 77.4856C28.9832 77.4856 28.9832 77.4856 28.9832 77.4856C28.9832 77.4856 28.9832 77.4856 28.9832 77.4856C28.9832 77.4856 28.9832 77.4856 28.9832 77.4856C28.9832 77.4856 28.9832 77.4856 28.9832 77.4856C28.9832 77.4856 28.9832 77.4856 28.9832 77.4856C28.9832 77.4856 28.9832 77.4856 28.9832 77.4856C28.9832 77.4856 28.9832 77.4856 28.9832 77.4856C28.9832 77.4856 28.9832 77.4856 28.9832 77.4856C28.9832 77.4856 28.9832 77.4856 28.9832 77.4856C28.9832 77.4856 28.9832 77.4856 28.9832 77.4856C28.9832 77.4856 28.9832 77.4856 28.9832 77.4856C28.9832 77.4856 28.9832 77.4856 28.9832 77.4856C28.9832 77.4856 28.9832 77.4856 28.9832 77.4856C28.9832 77.4856 28.9832 77.4856 28.9832 77.4856C28.9832 77.4856 28.9832 77.4856 28.9832 77.4856C28.9832 77.4856 28.9832 77.4856 28.9832 77.4856C28.9832 77.4856 28.9832 77.4856 28.9832 77.4856C28.9832 77.4856 28.9832 77.4856 28.9832 77.4856C28.9832 77.4856 28.9832 77.4856 28.9832 77.4856C28.9832 77.4856 28.9832 77.4856 28.9832 77.4856C28.9832 77.4856 28.9832 77.4856 28.9832 77.4856C28.9832 77.4856 28.9832 77.4856 28.9832 77.4856C28.9832 77.4856 28.9832 77.4856 28.9832 77.4856C28.9832 77.4856 28.9832 77.4856 28.9832 77.4856C28.9832 77.4856 28.9832 77.4856 28.9832 77.4856C28.9832 77.4856 28.9832 77.4856 28.9832 77.4856C28.9832 77.4856 28.9832 77.4856 28.9832 77.4856C28.9832 77.4856 28.9832 77.4856 28.9832 77.4856C28.9832 77.4856 28.9832 77.4856 28.9832 77.4856C28.9832 77.4856 28.9832 77.4856 28.9832 77.4856C28.9832 77.4856 28.9832 77.4856 28.9832 77.4856C28.9832 77.4856 28.9832 77.4856 28.9832 77.4856C28.9832 77.4856 28.9832 77.4856 28.9832 77.4856C28.9832 77.4856 28.9832 77.4856 28.9832 77.4856C28.9832 77.4856 28.9832 77.4856 28.9832 77.4856C28.9832 77.4856 28.9832 77.4856 28.9832 77.4856C28.9832 77.4856 28.9832 77.4856 28.9832 77.4856C28.9832 77.4856 28.9832 77.4856 28.9832 77.4856C28.9832 77.4856 28.9832 77.4856 28.9832 77.4856C28.9832 77.4856 28.9832 77.4856 28.9832 77.4856C28.9832 77.4856 28.9832 77.4856 28.9832 77.4856C28.9832 77.4856 28.9832 77.4856 28.9832 77.4856C28.9832 77.4856 28.9832 77.4856 28.9832 77.4856C28.9832 77.4856 28.9832 77.4856 28.9832 77.4856C28.9832 77.4856 28.9832 77.4856 28.9832 77.4856C28.9832 77.4856 28.9832 77.4856 28.9832 77.4856C28.9832 77.4856 28.9832 77.4856 28.9832 77.4856C28.9832 77.4856 28.9832 77.4856 28.9832 77.4856C28.9832 77.4856 28.9832 77.4856 28.9832 77.4856C28.9832 77.4856 28.9832 77.4856 28.9832 77.4856C28.9832 77.4856 28.9832 77.4856 28.9832 77.4856C28.9832 77.4856 28.9832 77.4856 28.9832 77.4856C28.9832 77.4856 28.9832 77.4856 28.9832 77.4856C28.9832 77.4856 28.9832 77.4856 28.9832 77.4856C28.9832 77.4856 28.9832 77.4856 28.9832 77.4856C28.9832 77.4856 28.9832 77.4856 28.9832 77.4856C28.9832 77.4856 28.9832 77.4856 28.9832 77.4856C28.9832 77.4856 28.9832 77.4856 28.9832 77.4856C28.9832 77.4856 28.9832 77.4856 28.9832 77.4856C28.9832 77.4856 28.9832 77.4856 28.9832 77.4856C28.9832 77.4856 28.9832 77.4856 28.9832 77.4856C28.9832 77.4856 28.9832 77.4856 28.9832 77.4856C28.9832 77.4856 28.9832 77.4856 28.9832 77.4856C28.9832 77.4856 28.9832 77.4856 28.9832 77.4856C28.9832 77.4856 28.9832 77.4856 28.9832 77.4856C28.9832 77.4856 28.9832 77.4856 28.9832 77.4856C28.9832 77.4856 28.9832 77.4856 28.9832 77.4856C28.9832 77.4856 28.9832 77.4856 28.9832 77.4856C28.9832 77.4856 28.9832 77.4856 28.9832 77.4856C28.9832 77.4856 28.9832 77.4856 28.9832 77.4856C28.9832 77.4856 28.9832 77.4856 28.9832 77.4856C28.9832 77.4856 28.9831 77.4856 28.9831 77.4856C28.9831 77.4856 28.9831 77.4856 28.9831 77.4856C28.9831 77.4856 28.9831 77.4856 28.9831 77.4856C28.9831 77.4856 28.9831 77.4856 28.9831 77.4856C28.9831 77.4856 28.9831 77.4856 28.9831 77.4856C28.9831 77.4856 28.9831 77.4856 28.9831 77.4856C28.9831 77.4856 28.9831 77.4856 28.9831 77.4856C28.9831 77.4856 28.9831 77.4856 28.9831 77.4856C28.9831 77.4856 28.9831 77.4856 28.9831 77.4856C28.9831 77.4856 28.9831 77.4856 28.9831 77.4856C28.9831 77.4856 28.9831 77.4856 28.9831 77.4856C28.9831 77.4856 28.9831 77.4856 28.9831 77.4856C28.9831 77.4856 28.9831 77.4856 28.9831 77.4856C28.9831 77.4856 28.9831 77.4856 28.9831 77.4856C28.9831 77.4856 28.9831 77.4856 28.9831 77.4856C28.9831 77.4856 28.9831 77.4856 28.9831 77.4856C28.9831 77.4856 28.9831 77.4856 28.9831 77.4856C28.9831 77.4856 28.9831 77.4856 28.9831 77.4856C28.9831 77.4856 28.9831 77.4856 28.9831 77.4856C28.9831 77.4856 28.9831 77.4856 28.9831 77.4856C28.9831 77.4856 28.9831 77.4856 28.9831 77.4856C28.9831 77.4856 28.9831 77.4856 28.9831 77.4856C28.9831 77.4856 28.9831 77.4856 28.9831 77.4856C28.9831 77.4856 28.9831 77.4856 28.9831 77.4856C28.9831 77.4856 28.9831 77.4856 28.9831 77.4856C28.9831 77.4856 28.9831 77.4856 28.9831 77.4856C28.9831 77.4856 28.9831 77.4856 28.9831 77.4856C28.9831 77.4856 28.9831 77.4856 28.9831 77.4856C28.9831 77.4856 28.9831 77.4856 28.9831 77.4856C28.9831 77.4856 28.9831 77.4856 28.9831 77.4856C28.9831 77.4856 28.9831 77.4856 28.9831 77.4856C28.9831 77.4856 28.9831 77.4856 28.9831 77.4856C28.9831 77.4856 28.9831 77.4856 28.9831 77.4856C28.9831 77.4856 28.9831 77.4856 28.9831 77.4856C28.9831 77.4856 28.9831 77.4856 28.9831 77.4856C28.9831 77.4856 28.9831 77.4856 28.9831 77.4856C28.9831 77.4856 28.9831 77.4856 28.9831 77.4856C28.9831 77.4856 28.9831 77.4856 28.9831 77.4856C28.9831 77.4856 28.9831 77.4856 28.9831 77.4856C28.9831 77.4856 28.9831 77.4856 28.9831 77.4856C28.9831 77.4856 28.9831 77.4856 28.9831 77.4856C28.9831 77.4856 28.9831 77.4856 28.9831 77.4856C28.9831 77.4856 28.9831 77.4856 28.9831 77.4856C28.9831 77.4856 28.9831 77.4856 28.9831 77.4856C28.9831 77.4856 28.9831 77.4856 28.9831 77.4856C28.9831 77.4856 28.9831 77.4856 28.9831 77.4856C28.9831 77.4856 28.9831 77.4856 28.9831 77.4856C28.9831 77.4856 28.9831 77.4856 28.9831 77.4856C28.9831 77.4856 28.9831 77.4856 28.9831 77.4856C28.9831 77.4856 28.9831 77.4856 28.9831 77.4856C28.9831 77.4856 28.9831 77.4856 28.9831 77.4856C28.9831 77.4856 28.9831 77.4856 28.9831 77.4856C28.9831 77.4856 28.9831 77.4856 28.9831 77.4856C28.9831 77.4856 28.9831 77.4856 28.9831 77.4856C28.9831 77.4856 28.9831 77.4856 28.9831 77.4856C28.9831 77.4856 28.9831 77.4856 28.9831 77.4856C28.9831 77.4856 28.9831 77.4856 28.9831 77.4856C28.9831 77.4856 28.9831 77.4856 28.9831 77.4856C28.9831 77.4856 28.9831 77.4856 28.9831 77.4856C28.9831 77.4856 28.9831 77.4856 28.9831 77.4856C28.9831 77.4856 28.9831 77.4856 28.9831 77.4856C28.9831 77.4856 28.9831 77.4856 28.9831 77.4856C28.9831 77.4856 28.9831 77.4856 28.9831 77.4856C28.9831 77.4856 28.9831 77.4856 28.9831 77.4856C28.9831 77.4856 28.9831 77.4856 28.9831 77.4856C28.9831 77.4856 28.9831 77.4856 28.9831 77.4856C28.9831 77.4856 28.9831 77.4856 28.9831 77.4856C28.9831 77.4856 28.9831 77.4856 28.9831 77.4856C28.9831 77.4856 28.9831 77.4856 28.9831 77.4856C28.9831 77.4856 28.9831 77.4856 28.9831 77.4856C28.9831 77.4856 28.9831 77.4856 28.9831 77.4856C28.9831 77.4856 28.9831 77.4856 28.9831 77.4856C28.9831 77.4856 28.9831 77.4856 28.9831 77.4856C28.9831 77.4856 28.9831 77.4856 28.9831 77.4856C28.9831 77.4856 28.9831 77.4856 28.9831 77.4856C28.9831 77.4856 28.9831 77.4856 28.9831 77.4856C28.9831 77.4856 28.9831 77.4856 28.9831 77.4856C28.9831 77.4856 28.9831 77.4856 28.9831 77.4856C28.9831 77.4856 28.9831 77.4856 28.9831 77.4856C28.9831 77.4856 28.9831 77.4856 28.9831 77.4856C28.9831 77.4856 28.9831 77.4856 28.9831 77.4856C28.9831 77.4856 28.9831 77.4856 28.9831 77.4856C28.9831 77.4856 28.9831 77.4856 28.9831 77.4856C28.9831 77.4856 28.9831 77.4856 28.9831 77.4856C28.9831 77.4856 28.9831 77.4856 28.9831 77.4856C28.9831 77.4856 28.9831 77.4856 28.9831 77.4856C28.9831 77.4856 28.9831 77.4856 28.9831 77.4856C28.9831 77.4856 28.9831 77.4856 28.9831 77.4856C28.9831 77.4856 28.9831 77.4856 28.9831 77.4856C28.9831 77.4856 28.9831 77.4856 28.9831 77.4856C28.9831 77.4856 28.9831 77.4856 28.9831 77.4856C28.9831 77.4856 28.9831 77.4856 28.9831 77.4856C28.9831 77.4856 28.9831 77.4856 28.9831 77.4856C28.9831 77.4856 28.9831 77.4856 28.9831 77.4856C28.9831 77.4856 28.9831 77.4856 28.9831 77.4856C28.9831 77.4856 28.9831 77.4856 28.9831 77.4856C28.9831 77.4856 28.9831 77.4856 28.9831 77.4856C28.9831 77.4856 28.9831 77.4856 28.9831 77.4856C28.9831 77.4856 28.9831 77.4856 28.9831 77.4856C28.9831 77.4856 28.9831 77.4856 28.9831 77.4856C28.9831 77.4856 28.9831 77.4856 28.9831 77.4856C28.9831 77.4856 28.9831 77.4856 28.9831 77.4856C28.9831 77.4856 28.9831 77.4856 28.9831 77.4856C28.9831 77.4856 28.9831 77.4856 28.9831 77.4856C28.9831 77.4856 28.9831 77.4856 28.9831 77.4856C28.9831 77.4856 28.9831 77.4856 28.9831 77.4856C28.9831 77.4856 28.9831 77.4856 28.9831 77.4856C28.9831 77.4856 28.9831 77.4856 28.9831 77.4856C28.9831 77.4856 28.9831 77.4856 28.9831 77.4856C28.9831 77.4856 28.9831 77.4856 28.9831 77.4856C28.9831 77.4856 28.9831 77.4856 28.9831 77.4856C28.9831 77.4856 28.9831 77.4856 28.9831 77.4856C28.9831 77.4856 28.9831 77.4856 28.9831 77.4856C28.9831 77.4856 28.9831 77.4856 28.9831 77.4856C28.9831 77.4856 28.9831 77.4856 28.9831 77.4856C28.9831 77.4856 28.9831 77.4856 28.9831 77.4856C28.9831 77.4856 28.9831 77.4856 28.9831 77.4856C28.9831 77.4856 28.9831 77.4856 28.9831 77.4856C28.9831 77.4856 28.9831 77.4856 28.9831 77.4856C28.9831 77.4856 28.9831 77.4856 28.9831 77.4856C28.9831 77.4856 28.9831 77.4856 28.9831 77.4856C28.9831 77.4856 28.9831 77.4856 28.9831 77.4856C28.9831 77.4856 28.9831 77.4856 28.9831 77.4856C28.9831 77.4856 28.9831 77.4856 28.9831 77.4856C28.9831 77.4856 28.9831 77.4856 28.9831 77.4856C28.9831 77.4856 28.9831 77.4856 28.9831 77.4856C28.9831 77.4856 28.9831 77.4856 28.9831 77.4856C28.9831 77.4856 28.9831 77.4856 28.9831 77.4856C28.9831 77.4856 28.9831 77.4856 28.9831 77.4856C28.9831 77.4856 28.9831 77.4856 28.9831 77.4856C28.9831 77.4856 28.9831 77.4856 28.9831 77.4856C28.9831 77.4856 28.9831 77.4856 28.9831 77.4856C28.9831 77.4856 28.9831 77.4856 28.9831 77.4856C28.9831 77.4856 28.9831 77.4856 28.9831 77.4856C28.9831 77.4856 28.9831 77.4856 28.9831 77.4856C28.9831 77.4856 28.9831 77.4856 28.9831 77.4856C28.9831 77.4856 28.9831 77.4856 28.9831 77.4856C28.9831 77.4856 28.9831 77.4856 28.9831 77.4856C28.9831 77.4856 28.9831 77.4856 28.9831 77.4856C28.9831 77.4856 28.9831 77.4856 28.9831 77.4856C28.9831 77.4856 28.9831 77.4856 28.9831 77.4856C28.9831 77.4856 28.9831 77.4856 28.9831 77.4856C28.9831 77.4856 28.9831 77.4856 28.9831 77.4856C28.9831 77.4856 28.9831 77.4856 28.9831 77.4856C28.9831 77.4856 28.9831 77.4856 28.9831 77.4856C28.9831 77.4856 28.9831 77.4856 28.9831 77.4856C28.9831 77.4856 28.9831 77.4856 28.9831 77.4856C28.9831 77.4856 28.9831 77.4856 28.9831 77.4856C28.9831 77.4856 28.9831 77.4856 28.9831 77.4856C28.9831 77.4856 28.9831 77.4856 28.9831 77.4856C28.9831 77.4856 28.9831 77.4856 28.9831 77.4856C28.9831 77.4856 28.9831 77.4856 28.9831 77.4856C28.9831 77.4856 28.9831 77.4856 28.9831 77.4856C28.9831 77.4856 28.9831 77.4856 28.9831 77.4856C28.9831 77.4856 28.9831 77.4856 28.9831 77.4856C28.9831 77.4856 28.9831 77.4856 28.9831 77.4856C28.9831 77.4856 28.9831 77.4856 28.9831 77.4856C28.9831 77.4856 28.9831 77.4856 28.9831 77.4856C28.9831 77.4856 28.9831 77.4856 28.9831 77.4856C28.9831 77.4856 28.9831 77.4856 28.9831 77.4856C28.9831 77.4856 28.9831 77.4856 28.9831 77.4856C28.9831 77.4856 28.9831 77.4856 28.9831 77.4856C28.9831 77.4856 28.9831 77.4856 28.9831 77.4856C28.9831 77.4856 28.9831 77.4856 28.9831 77.4856C28.9831 77.4856 28.9831 77.4856 28.9831 77.4856C28.9831 77.4856 28.9831 77.4856 28.9831 77.4856C28.9831 77.4856 28.9831 77.4856 28.9831 77.4856C28.9831 77.4856 28.9831 77.4856 28.9831 77.4856C28.9831 77.4856 28.9831 77.4856 28.9831 77.4856C28.9831 77.4856 28.9831 77.4856 28.9831 77.4856C28.9831 77.4856 28.9831 77.4856 28.9831 77.4856C28.9831 77.4856 28.9831 77.4856 28.9831 77.4856C28.9831 77.4856 28.9831 77.4856 28.9831 77.4856C28.9831 77.4856 28.9831 77.4856 28.9831 77.4856C28.9831 77.4856 28.9831 77.4856 28.9831 77.4856C28.9831 77.4856 28.9831 77.4856 28.9831 77.4856C28.9831 77.4856 28.9831 77.4856 28.9831 77.4856C28.9831 77.4856 28.9831 77.4856 28.9831 77.4856C28.9831 77.4856 28.9831 77.4856 28.9831 77.4856C28.9831 77.4856 28.9831 77.4856 28.9831 77.4856C28.9831 77.4856 28.9831 77.4856 28.9831 77.4856C28.9831 77.4856 28.9831 77.4856 28.9831 77.4856C28.9831 77.4856 28.9831 77.4856 28.9831 77.4856C28.9831 77.4856 28.9831 77.4856 28.9831 77.4856C28.9831 77.4856 28.9831 77.4856 28.9831 77.4856C28.9831 77.4856 28.9831 77.4856 28.9831 77.4856C28.9831 77.4856 28.9831 77.4856 28.9831 77.4856C28.9831 77.4856 28.9831 77.4856 28.9831 77.4856C28.9831 77.4856 28.9831 77.4856 28.9831 77.4856C28.9831 77.4856 28.9831 77.4856 28.9831 77.4856C28.9831 77.4856 28.9831 77.4856 28.9831 77.4856C28.9831 77.4856 28.9831 77.4856 28.9831 77.4856C28.9831 77.4856 28.9831 77.4856 28.9831 77.4856C28.9831 77.4856 28.9831 77.4856 28.9831 77.4856C28.9831 77.4856 28.9831 77.4856 28.9831 77.4856C28.9831 77.4856 28.9831 77.4856 28.9831 77.4856C28.9831 77.4856 28.9831 77.4856 28.9831 77.4856C28.9831 77.4856 28.9831 77.4856 28.9831 77.4856C28.9831 77.4856 28.9831 77.4856 28.9831 77.4856C28.9831 77.4856 28.9831 77.4856 28.9831 77.4856C28.9831 77.4856 28.9831 77.4856 28.9831 77.4856C28.9831 77.4856 28.9831 77.4856 28.9831 77.4856C28.9831 77.4856 28.9831 77.4856 28.9831 77.4856C28.9831 77.4856 28.9831 77.4856 28.9831 77.4856C28.9831 77.4856 28.9831 77.4856 28.9831 77.4856C28.9831 77.4856 28.9831 77.4856 28.9831 77.4856C28.9831 77.4856 28.9831 77.4856 28.9831 77.4856C28.9831 77.4856 28.9831 77.4856 28.9831 77.4856C28.9831 77.4856 28.9831 77.4856 28.9831 77.4856C28.9831 77.4856 28.9831 77.4856 28.9831 77.4856C28.9831 77.4856 28.9831 77.4856 28.9831 77.4856C28.9831 77.4856 28.9831 77.4856 28.9831 77.4856C28.9831 77.4856 28.9831 77.4856 28.9831 77.4856C28.9831 77.4856 28.9831 77.4856 28.9831 77.4856C28.9831 77.4856 28.9831 77.4856 28.9831 77.4856C28.9831 77.4856 28.9831 77.4856 28.9831 77.4856C28.9831 77.4856 28.9831 77.4856 28.9831 77.4856C28.9831 77.4856 28.9831 77.4856 28.9831 77.4856C28.9831 77.4856 28.9831 77.4856 28.9831 77.4856C28.9831 77.4856 28.9831 77.4856 28.9831 77.4856C28.9831 77.4856 28.9831 77.4856 28.9831 77.4856C28.9831 77.4856 28.9831 77.4856 28.9831 77.4856C28.9831 77.4856 28.9831 77.4856 28.9831 77.4856C28.9831 77.4856 28.9831 77.4856 28.9831 77.4856C28.9831 77.4856 28.9831 77.4856 28.9831 77.4856C28.9831 77.4856 28.9831 77.4856 28.9831 77.4856C28.9831 77.4856 28.9831 77.4856 28.9831 77.4856C28.9831 77.4856 28.9831 77.4856 28.9831 77.4856C28.9831 77.4856 28.9831 77.4856 28.9831 77.4856C28.9831 77.4856 28.9831 77.4856 28.9831 77.4856C28.9831 77.4856 28.9831 77.4856 28.9831 77.4856C28.9831 77.4856 28.9831 77.4856 28.9831 77.4856C28.9831 77.4856 28.9831 77.4856 28.9831 77.4856C28.9831 77.4856 28.9831 77.4856 28.9831 77.4856C28.9831 77.4856 28.9831 77.4856 28.9831 77.4856C28.9831 77.4856 28.9831 77.4856 28.9831 77.4856C28.9831 77.4856 28.9831 77.4856 28.9831 77.4856C28.9831 77.4856 28.9831 77.4856 28.9831 77.4856C28.9831 77.4856 28.9831 77.4856 28.9831 77.4856C28.9831 77.4856 28.9831 77.4856 28.9831 77.4856C28.9831 77.4856 28.9831 77.4856 28.9831 77.4856C28.9831 77.4856 28.9831 77.4856 28.9831 77.4856C28.9831 77.4856 28.9831 77.4856 28.9831 77.4856C28.9831 77.4856 28.9831 77.4856 28.9831 77.4856C28.9831 77.4856 28.9831 77.4856 28.9831 77.4856C28.9831 77.4856 28.9831 77.4856 28.9831 77.4856C28.9831 77.4856 28.9831 77.4856 28.9831 77.4856C28.9831 77.4856 28.9831 77.4856 28.9831 77.4856C28.9831 77.4856 28.9831 77.4856 28.9831 77.4856C28.9831 77.4856 28.9831 77.4856 28.9831 77.4856C28.9831 77.4856 28.9831 77.4856 28.9831 77.4856C28.9831 77.4856 28.9831 77.4856 28.9831 77.4856C28.9831 77.4856 28.9831 77.4856 28.9831 77.4856C28.9831 77.4856 28.9831 77.4856 28.9831 77.4856C28.9831 77.4856 28.9831 77.4856 28.9831 77.4856C28.9831 77.4856 28.9831 77.4856 28.9831 77.4856C28.9831 77.4856 28.9831 77.4856 28.9831 77.4856C28.9831 77.4856 28.9831 77.4856 28.9831 77.4856C28.9831 77.4856 28.9831 77.4856 28.9831 77.4856C28.9831 77.4856 28.9831 77.4856 28.9831 77.4856C28.9831 77.4856 28.9831 77.4856 28.9831 77.4856C28.9831 77.4856 28.9831 77.4856 28.9831 77.4856C28.9831 77.4856 28.9831 77.4856 28.9831 77.4856C28.9831 77.4856 28.9831 77.4856 28.9831 77.4856C28.9831 77.4856 28.9831 77.4856 28.9831 77.4856C28.9831 77.4856 28.9831 77.4856 28.9831 77.4856C28.9831 77.4856 28.9831 77.4856 28.9831 77.4856C28.9831 77.4856 28.9831 77.4856 28.9831 77.4856C28.9831 77.4856 28.9831 77.4856 28.9831 77.4856C28.9831 77.4856 28.9831 77.4856 28.9831 77.4856C28.9831 77.4856 28.9831 77.4856 28.9831 77.4856C28.9831 77.4856 28.9831 77.4856 28.9831 77.4856C28.9831 77.4856 28.9831 77.4856 28.9831 77.4856C28.9831 77.4856 28.9831 77.4856 28.9831 77.4856C28.9831 77.4856 28.9831 77.4856 28.9831 77.4856C28.9831 77.4856 28.9831 77.4856 28.9831 77.4856C28.9831 77.4856 28.9831 77.4856 28.9831 77.4856C28.9831 77.4856 28.9831 77.4856 28.9831 77.4856C28.9831 77.4856 28.9831 77.4856 28.9831 77.4856C28.9831 77.4856 28.9831 77.4856 28.9831 77.4856C28.9831 77.4856 28.9831 77.4856 28.9831 77.4856C28.9831 77.4856 28.9831 77.4856 28.9831 77.4856C28.9831 77.4856 28.9831 77.4856 28.9831 77.4856C28.9831 77.4856 28.9831 77.4856 28.9831 77.4856C28.9831 77.4856 28.9831 77.4856 28.9831 77.4856C28.9831 77.4856 28.9831 77.4856 28.9831 77.4856C28.9831 77.4856 28.9831 77.4856 28.9831 77.4856C28.9831 77.4856 28.9831 77.4856 28.9831 77.4856C28.9831 77.4856 28.9831 77.4856 28.9831 77.4856C28.9831 77.4856 28.9831 77.4856 28.9831 77.4856C28.9831 77.4856 28.9831 77.4856 28.9831 77.4856C28.9831 77.4856 28.9831 77.4856 28.9831 77.4856C28.9831 77.4856 28.9831 77.4856 28.9831 77.4856C28.9831 77.4856 28.9831 77.4856 28.9831 77.4856C28.9831 77.4856 28.9831 77.4856 28.9831 77.4856C28.9831 77.4856 28.9831 77.4856 28.9831 77.4856C28.9831 77.4856 28.9831 77.4856 28.9831 77.4856C28.9831 77.4856 28.9831 77.4856 28.9831 77.4856C28.9831 77.4856 28.9831 77.4856 28.9831 77.4856C28.9831 77.4856 28.9831 77.4856 28.9831 77.4856C28.9831 77.4856 28.9831 77.4856 28.9831 77.4856C28.9831 77.4856 28.9831 77.4856 28.9831 77.4856C28.9831 77.4856 28.9831 77.4856 28.9831 77.4856C28.9831 77.4856 28.9831 77.4856 28.9831 77.4856C28.9831 77.4856 28.9831 77.4856 28.9831 77.4856C28.9831 77.4856 28.9831 77.4856 28.9831 77.4856C28.9831 77.4856 28.9831 77.4856 28.9831 77.4856C28.9831 77.4856 28.9831 77.4856 28.9831 77.4856C28.9831 77.4856 28.9831 77.4856 28.9831 77.4856C28.9831 77.4856 28.9831 77.4856 28.9831 77.4856C28.9831 77.4856 28.9831 77.4856 28.9831 77.4856C28.9831 77.4856 28.9831 77.4856 28.9831 77.4856C28.9831 77.4856 28.9831 77.4856 28.9831 77.4856C28.9831 77.4856 28.9831 77.4856 28.9831 77.4856C28.9831 77.4856 28.9831 77.4856 28.9831 77.4856C28.9831 77.4856 28.9831 77.4856 28.9831 77.4856C28.9831 77.4856 28.9831 77.4856 28.9831 77.4856C28.9831 77.4856 28.9831 77.4856 28.9831 77.4856C28.9831 77.4856 28.9831 77.4856 28.9831 77.4856C28.9831 77.4856 28.9831 77.4856 28.9831 77.4856C28.9831 77.4856 28.9831 77.4856 28.9831 77.4856C28.9831 77.4856 28.9831 77.4856 28.9831 77.4856C28.9831 77.4856 28.9831 77.4856 28.9831 77.4856C28.9831 77.4856 28.9831 77.4856 28.9831 77.4856C28.9831 77.4856 28.9831 77.4856 28.9831 77.4856C28.9831 77.4856 28.9831 77.4856 28.9831 77.4856C28.9831 77.4856 28.9831 77.4856 28.9831 77.4856C28.9831 77.4856 28.9831 77.4856 28.983 77.4856C28.983 77.4856 28.983 77.4856 28.983 77.4856C28.983 77.4856 28.983 77.4856 28.983 77.4856C28.983 77.4856 28.983 77.4856 28.983 77.4856C28.983 77.4856 28.983 77.4856 28.983 77.4856C28.983 77.4856 28.983 77.4856 28.983 77.4856C28.983 77.4856 28.983 77.4856 28.983 77.4856C28.983 77.4856 28.983 77.4856 28.983 77.4856C28.983 77.4856 28.983 77.4856 28.983 77.4856C28.983 77.4856 28.983 77.4856 28.983 77.4856C28.983 77.4856 28.983 77.4856 28.983 77.4856C28.983 77.4856 28.983 77.4856 28.983 77.4856C28.983 77.4856 28.983 77.4856 28.983 77.4856C28.983 77.4856 28.983 77.4856 28.983 77.4856C28.983 77.4856 28.983 77.4856 28.983 77.4856C28.983 77.4856 28.983 77.4856 28.983 77.4856C28.983 77.4856 28.983 77.4856 28.983 77.4856C28.983 77.4856 28.983 77.4856 28.983 77.4856C28.983 77.4856 28.983 77.4856 28.983 77.4856C28.983 77.4856 28.983 77.4856 28.983 77.4856C28.983 77.4856 28.983 77.4856 28.983 77.4856C28.983 77.4856 28.983 77.4856 28.983 77.4856C28.983 77.4856 28.983 77.4856 28.983 77.4856C28.983 77.4856 28.983 77.4856 28.983 77.4856C28.983 77.4856 28.983 77.4856 28.983 77.4856C28.983 77.4856 28.983 77.4856 28.983 77.4856C28.983 77.4856 28.983 77.4856 28.983 77.4856C28.983 77.4856 28.983 77.4856 28.983 77.4856C28.983 77.4856 28.983 77.4856 28.983 77.4856C28.983 77.4856 28.983 77.4856 28.983 77.4856C28.983 77.4856 28.983 77.4856 28.983 77.4856C28.983 77.4856 28.983 77.4856 28.983 77.4856C28.983 77.4856 28.983 77.4856 28.983 77.4856C28.983 77.4856 28.983 77.4856 28.983 77.4856C28.983 77.4856 28.983 77.4856 28.983 77.4856C28.983 77.4856 28.983 77.4856 28.983 77.4856C28.983 77.4856 28.983 77.4856 28.983 77.4856C28.983 77.4856 28.983 77.4856 28.983 77.4856C28.983 77.4856 28.983 77.4856 28.983 77.4856C28.983 77.4856 28.983 77.4856 28.983 77.4856C28.983 77.4856 28.983 77.4856 28.983 77.4856C28.983 77.4856 28.983 77.4856 28.983 77.4856C28.983 77.4856 28.983 77.4856 28.983 77.4856C28.983 77.4856 28.983 77.4856 28.983 77.4856C28.983 77.4856 28.983 77.4856 28.983 77.4856C28.983 77.4856 28.983 77.4856 28.983 77.4856C28.983 77.4856 28.983 77.4856 28.983 77.4856C28.983 77.4856 28.983 77.4856 28.983 77.4856C28.983 77.4856 28.983 77.4856 28.983 77.4856C28.983 77.4856 28.983 77.4856 28.983 77.4856C28.983 77.4856 28.983 77.4856 28.983 77.4856C28.983 77.4856 28.983 77.4856 28.983 77.4856C28.983 77.4856 28.983 77.4856 28.983 77.4856C28.983 77.4856 28.983 77.4856 28.983 77.4856C28.983 77.4856 28.983 77.4856 28.983 77.4856C28.983 77.4856 28.983 77.4856 28.983 77.4856C28.983 77.4856 28.983 77.4856 28.983 77.4856C28.983 77.4856 28.983 77.4856 28.983 77.4856C28.983 77.4856 28.983 77.4856 28.983 77.4856V81.4856C28.983 81.4856 28.983 81.4856 28.983 81.4856C28.983 81.4856 28.983 81.4856 28.983 81.4856C28.983 81.4856 28.983 81.4856 28.983 81.4856C28.983 81.4856 28.983 81.4856 28.983 81.4856C28.983 81.4856 28.983 81.4856 28.983 81.4856C28.983 81.4856 28.983 81.4856 28.983 81.4856C28.983 81.4856 28.983 81.4856 28.983 81.4856C28.983 81.4856 28.983 81.4856 28.983 81.4856C28.983 81.4856 28.983 81.4856 28.983 81.4856C28.983 81.4856 28.983 81.4856 28.983 81.4856C28.983 81.4856 28.983 81.4856 28.983 81.4856C28.983 81.4856 28.983 81.4856 28.983 81.4856C28.983 81.4856 28.983 81.4856 28.983 81.4856C28.983 81.4856 28.983 81.4856 28.983 81.4856C28.983 81.4856 28.983 81.4856 28.983 81.4856C28.983 81.4856 28.983 81.4856 28.983 81.4856C28.983 81.4856 28.983 81.4856 28.983 81.4856C28.983 81.4856 28.983 81.4856 28.983 81.4856C28.983 81.4856 28.983 81.4856 28.983 81.4856C28.983 81.4856 28.983 81.4856 28.983 81.4856C28.983 81.4856 28.983 81.4856 28.983 81.4856C28.983 81.4856 28.983 81.4856 28.983 81.4856C28.983 81.4856 28.983 81.4856 28.983 81.4856C28.983 81.4856 28.983 81.4856 28.983 81.4856C28.983 81.4856 28.983 81.4856 28.983 81.4856C28.983 81.4856 28.983 81.4856 28.983 81.4856C28.983 81.4856 28.983 81.4856 28.983 81.4856C28.983 81.4856 28.983 81.4856 28.983 81.4856C28.983 81.4856 28.983 81.4856 28.983 81.4856C28.983 81.4856 28.983 81.4856 28.983 81.4856C28.983 81.4856 28.983 81.4856 28.983 81.4856C28.983 81.4856 28.983 81.4856 28.983 81.4856C28.983 81.4856 28.983 81.4856 28.983 81.4856C28.983 81.4856 28.983 81.4856 28.983 81.4856C28.983 81.4856 28.983 81.4856 28.983 81.4856C28.983 81.4856 28.983 81.4856 28.983 81.4856C28.983 81.4856 28.983 81.4856 28.983 81.4856C28.983 81.4856 28.983 81.4856 28.983 81.4856C28.983 81.4856 28.983 81.4856 28.983 81.4856C28.983 81.4856 28.983 81.4856 28.983 81.4856C28.983 81.4856 28.983 81.4856 28.983 81.4856C28.983 81.4856 28.983 81.4856 28.983 81.4856C28.983 81.4856 28.983 81.4856 28.983 81.4856C28.983 81.4856 28.983 81.4856 28.983 81.4856C28.983 81.4856 28.983 81.4856 28.983 81.4856C28.983 81.4856 28.983 81.4856 28.983 81.4856C28.983 81.4856 28.983 81.4856 28.983 81.4856C28.983 81.4856 28.983 81.4856 28.983 81.4856C28.983 81.4856 28.983 81.4856 28.983 81.4856C28.983 81.4856 28.983 81.4856 28.983 81.4856C28.983 81.4856 28.983 81.4856 28.983 81.4856C28.983 81.4856 28.983 81.4856 28.983 81.4856C28.983 81.4856 28.983 81.4856 28.983 81.4856C28.983 81.4856 28.983 81.4856 28.983 81.4856C28.983 81.4856 28.983 81.4856 28.983 81.4856C28.983 81.4856 28.983 81.4856 28.983 81.4856C28.983 81.4856 28.983 81.4856 28.983 81.4856C28.983 81.4856 28.983 81.4856 28.983 81.4856C28.9831 81.4856 28.9831 81.4856 28.9831 81.4856C28.9831 81.4856 28.9831 81.4856 28.9831 81.4856C28.9831 81.4856 28.9831 81.4856 28.9831 81.4856C28.9831 81.4856 28.9831 81.4856 28.9831 81.4856C28.9831 81.4856 28.9831 81.4856 28.9831 81.4856C28.9831 81.4856 28.9831 81.4856 28.9831 81.4856C28.9831 81.4856 28.9831 81.4856 28.9831 81.4856C28.9831 81.4856 28.9831 81.4856 28.9831 81.4856C28.9831 81.4856 28.9831 81.4856 28.9831 81.4856C28.9831 81.4856 28.9831 81.4856 28.9831 81.4856C28.9831 81.4856 28.9831 81.4856 28.9831 81.4856C28.9831 81.4856 28.9831 81.4856 28.9831 81.4856C28.9831 81.4856 28.9831 81.4856 28.9831 81.4856C28.9831 81.4856 28.9831 81.4856 28.9831 81.4856C28.9831 81.4856 28.9831 81.4856 28.9831 81.4856C28.9831 81.4856 28.9831 81.4856 28.9831 81.4856C28.9831 81.4856 28.9831 81.4856 28.9831 81.4856C28.9831 81.4856 28.9831 81.4856 28.9831 81.4856C28.9831 81.4856 28.9831 81.4856 28.9831 81.4856C28.9831 81.4856 28.9831 81.4856 28.9831 81.4856C28.9831 81.4856 28.9831 81.4856 28.9831 81.4856C28.9831 81.4856 28.9831 81.4856 28.9831 81.4856C28.9831 81.4856 28.9831 81.4856 28.9831 81.4856C28.9831 81.4856 28.9831 81.4856 28.9831 81.4856C28.9831 81.4856 28.9831 81.4856 28.9831 81.4856C28.9831 81.4856 28.9831 81.4856 28.9831 81.4856C28.9831 81.4856 28.9831 81.4856 28.9831 81.4856C28.9831 81.4856 28.9831 81.4856 28.9831 81.4856C28.9831 81.4856 28.9831 81.4856 28.9831 81.4856C28.9831 81.4856 28.9831 81.4856 28.9831 81.4856C28.9831 81.4856 28.9831 81.4856 28.9831 81.4856C28.9831 81.4856 28.9831 81.4856 28.9831 81.4856C28.9831 81.4856 28.9831 81.4856 28.9831 81.4856C28.9831 81.4856 28.9831 81.4856 28.9831 81.4856C28.9831 81.4856 28.9831 81.4856 28.9831 81.4856C28.9831 81.4856 28.9831 81.4856 28.9831 81.4856C28.9831 81.4856 28.9831 81.4856 28.9831 81.4856C28.9831 81.4856 28.9831 81.4856 28.9831 81.4856C28.9831 81.4856 28.9831 81.4856 28.9831 81.4856C28.9831 81.4856 28.9831 81.4856 28.9831 81.4856C28.9831 81.4856 28.9831 81.4856 28.9831 81.4856C28.9831 81.4856 28.9831 81.4856 28.9831 81.4856C28.9831 81.4856 28.9831 81.4856 28.9831 81.4856C28.9831 81.4856 28.9831 81.4856 28.9831 81.4856C28.9831 81.4856 28.9831 81.4856 28.9831 81.4856C28.9831 81.4856 28.9831 81.4856 28.9831 81.4856C28.9831 81.4856 28.9831 81.4856 28.9831 81.4856C28.9831 81.4856 28.9831 81.4856 28.9831 81.4856C28.9831 81.4856 28.9831 81.4856 28.9831 81.4856C28.9831 81.4856 28.9831 81.4856 28.9831 81.4856C28.9831 81.4856 28.9831 81.4856 28.9831 81.4856C28.9831 81.4856 28.9831 81.4856 28.9831 81.4856C28.9831 81.4856 28.9831 81.4856 28.9831 81.4856C28.9831 81.4856 28.9831 81.4856 28.9831 81.4856C28.9831 81.4856 28.9831 81.4856 28.9831 81.4856C28.9831 81.4856 28.9831 81.4856 28.9831 81.4856C28.9831 81.4856 28.9831 81.4856 28.9831 81.4856C28.9831 81.4856 28.9831 81.4856 28.9831 81.4856C28.9831 81.4856 28.9831 81.4856 28.9831 81.4856C28.9831 81.4856 28.9831 81.4856 28.9831 81.4856C28.9831 81.4856 28.9831 81.4856 28.9831 81.4856C28.9831 81.4856 28.9831 81.4856 28.9831 81.4856C28.9831 81.4856 28.9831 81.4856 28.9831 81.4856C28.9831 81.4856 28.9831 81.4856 28.9831 81.4856C28.9831 81.4856 28.9831 81.4856 28.9831 81.4856C28.9831 81.4856 28.9831 81.4856 28.9831 81.4856C28.9831 81.4856 28.9831 81.4856 28.9831 81.4856C28.9831 81.4856 28.9831 81.4856 28.9831 81.4856C28.9831 81.4856 28.9831 81.4856 28.9831 81.4856C28.9831 81.4856 28.9831 81.4856 28.9831 81.4856C28.9831 81.4856 28.9831 81.4856 28.9831 81.4856C28.9831 81.4856 28.9831 81.4856 28.9831 81.4856C28.9831 81.4856 28.9831 81.4856 28.9831 81.4856C28.9831 81.4856 28.9831 81.4856 28.9831 81.4856C28.9831 81.4856 28.9831 81.4856 28.9831 81.4856C28.9831 81.4856 28.9831 81.4856 28.9831 81.4856C28.9831 81.4856 28.9831 81.4856 28.9831 81.4856C28.9831 81.4856 28.9831 81.4856 28.9831 81.4856C28.9831 81.4856 28.9831 81.4856 28.9831 81.4856C28.9831 81.4856 28.9831 81.4856 28.9831 81.4856C28.9831 81.4856 28.9831 81.4856 28.9831 81.4856C28.9831 81.4856 28.9831 81.4856 28.9831 81.4856C28.9831 81.4856 28.9831 81.4856 28.9831 81.4856C28.9831 81.4856 28.9831 81.4856 28.9831 81.4856C28.9831 81.4856 28.9831 81.4856 28.9831 81.4856C28.9831 81.4856 28.9831 81.4856 28.9831 81.4856C28.9831 81.4856 28.9831 81.4856 28.9831 81.4856C28.9831 81.4856 28.9831 81.4856 28.9831 81.4856C28.9831 81.4856 28.9831 81.4856 28.9831 81.4856C28.9831 81.4856 28.9831 81.4856 28.9831 81.4856C28.9831 81.4856 28.9831 81.4856 28.9831 81.4856C28.9831 81.4856 28.9831 81.4856 28.9831 81.4856C28.9831 81.4856 28.9831 81.4856 28.9831 81.4856C28.9831 81.4856 28.9831 81.4856 28.9831 81.4856C28.9831 81.4856 28.9831 81.4856 28.9831 81.4856C28.9831 81.4856 28.9831 81.4856 28.9831 81.4856C28.9831 81.4856 28.9831 81.4856 28.9831 81.4856C28.9831 81.4856 28.9831 81.4856 28.9831 81.4856C28.9831 81.4856 28.9831 81.4856 28.9831 81.4856C28.9831 81.4856 28.9831 81.4856 28.9831 81.4856C28.9831 81.4856 28.9831 81.4856 28.9831 81.4856C28.9831 81.4856 28.9831 81.4856 28.9831 81.4856C28.9831 81.4856 28.9831 81.4856 28.9831 81.4856C28.9831 81.4856 28.9831 81.4856 28.9831 81.4856C28.9831 81.4856 28.9831 81.4856 28.9831 81.4856C28.9831 81.4856 28.9831 81.4856 28.9831 81.4856C28.9831 81.4856 28.9831 81.4856 28.9831 81.4856C28.9831 81.4856 28.9831 81.4856 28.9831 81.4856C28.9831 81.4856 28.9831 81.4856 28.9831 81.4856C28.9831 81.4856 28.9831 81.4856 28.9831 81.4856C28.9831 81.4856 28.9831 81.4856 28.9831 81.4856C28.9831 81.4856 28.9831 81.4856 28.9831 81.4856C28.9831 81.4856 28.9831 81.4856 28.9831 81.4856C28.9831 81.4856 28.9831 81.4856 28.9831 81.4856C28.9831 81.4856 28.9831 81.4856 28.9831 81.4856C28.9831 81.4856 28.9831 81.4856 28.9831 81.4856C28.9831 81.4856 28.9831 81.4856 28.9831 81.4856C28.9831 81.4856 28.9831 81.4856 28.9831 81.4856C28.9831 81.4856 28.9831 81.4856 28.9831 81.4856C28.9831 81.4856 28.9831 81.4856 28.9831 81.4856C28.9831 81.4856 28.9831 81.4856 28.9831 81.4856C28.9831 81.4856 28.9831 81.4856 28.9831 81.4856C28.9831 81.4856 28.9831 81.4856 28.9831 81.4856C28.9831 81.4856 28.9831 81.4856 28.9831 81.4856C28.9831 81.4856 28.9831 81.4856 28.9831 81.4856C28.9831 81.4856 28.9831 81.4856 28.9831 81.4856C28.9831 81.4856 28.9831 81.4856 28.9831 81.4856C28.9831 81.4856 28.9831 81.4856 28.9831 81.4856C28.9831 81.4856 28.9831 81.4856 28.9831 81.4856C28.9831 81.4856 28.9831 81.4856 28.9831 81.4856C28.9831 81.4856 28.9831 81.4856 28.9831 81.4856C28.9831 81.4856 28.9831 81.4856 28.9831 81.4856C28.9831 81.4856 28.9831 81.4856 28.9831 81.4856C28.9831 81.4856 28.9831 81.4856 28.9831 81.4856C28.9831 81.4856 28.9831 81.4856 28.9831 81.4856C28.9831 81.4856 28.9831 81.4856 28.9831 81.4856C28.9831 81.4856 28.9831 81.4856 28.9831 81.4856C28.9831 81.4856 28.9831 81.4856 28.9831 81.4856C28.9831 81.4856 28.9831 81.4856 28.9831 81.4856C28.9831 81.4856 28.9831 81.4856 28.9831 81.4856C28.9831 81.4856 28.9831 81.4856 28.9831 81.4856C28.9831 81.4856 28.9831 81.4856 28.9831 81.4856C28.9831 81.4856 28.9831 81.4856 28.9831 81.4856C28.9831 81.4856 28.9831 81.4856 28.9831 81.4856C28.9831 81.4856 28.9831 81.4856 28.9831 81.4856C28.9831 81.4856 28.9831 81.4856 28.9831 81.4856C28.9831 81.4856 28.9831 81.4856 28.9831 81.4856C28.9831 81.4856 28.9831 81.4856 28.9831 81.4856C28.9831 81.4856 28.9831 81.4856 28.9831 81.4856C28.9831 81.4856 28.9831 81.4856 28.9831 81.4856C28.9831 81.4856 28.9831 81.4856 28.9831 81.4856C28.9831 81.4856 28.9831 81.4856 28.9831 81.4856C28.9831 81.4856 28.9831 81.4856 28.9831 81.4856C28.9831 81.4856 28.9831 81.4856 28.9831 81.4856C28.9831 81.4856 28.9831 81.4856 28.9831 81.4856C28.9831 81.4856 28.9831 81.4856 28.9831 81.4856C28.9831 81.4856 28.9831 81.4856 28.9831 81.4856C28.9831 81.4856 28.9831 81.4856 28.9831 81.4856C28.9831 81.4856 28.9831 81.4856 28.9831 81.4856C28.9831 81.4856 28.9831 81.4856 28.9831 81.4856C28.9831 81.4856 28.9831 81.4856 28.9831 81.4856C28.9831 81.4856 28.9831 81.4856 28.9831 81.4856C28.9831 81.4856 28.9831 81.4856 28.9831 81.4856C28.9831 81.4856 28.9831 81.4856 28.9831 81.4856C28.9831 81.4856 28.9831 81.4856 28.9831 81.4856C28.9831 81.4856 28.9831 81.4856 28.9831 81.4856C28.9831 81.4856 28.9831 81.4856 28.9831 81.4856C28.9831 81.4856 28.9831 81.4856 28.9831 81.4856C28.9831 81.4856 28.9831 81.4856 28.9831 81.4856C28.9831 81.4856 28.9831 81.4856 28.9831 81.4856C28.9831 81.4856 28.9831 81.4856 28.9831 81.4856C28.9831 81.4856 28.9831 81.4856 28.9831 81.4856C28.9831 81.4856 28.9831 81.4856 28.9831 81.4856C28.9831 81.4856 28.9831 81.4856 28.9831 81.4856C28.9831 81.4856 28.9831 81.4856 28.9831 81.4856C28.9831 81.4856 28.9831 81.4856 28.9831 81.4856C28.9831 81.4856 28.9831 81.4856 28.9831 81.4856C28.9831 81.4856 28.9831 81.4856 28.9831 81.4856C28.9831 81.4856 28.9831 81.4856 28.9831 81.4856C28.9831 81.4856 28.9831 81.4856 28.9831 81.4856C28.9831 81.4856 28.9831 81.4856 28.9831 81.4856C28.9831 81.4856 28.9831 81.4856 28.9831 81.4856C28.9831 81.4856 28.9831 81.4856 28.9831 81.4856C28.9831 81.4856 28.9831 81.4856 28.9831 81.4856C28.9831 81.4856 28.9831 81.4856 28.9831 81.4856C28.9831 81.4856 28.9831 81.4856 28.9831 81.4856C28.9831 81.4856 28.9831 81.4856 28.9831 81.4856C28.9831 81.4856 28.9831 81.4856 28.9831 81.4856C28.9831 81.4856 28.9831 81.4856 28.9831 81.4856C28.9831 81.4856 28.9831 81.4856 28.9831 81.4856C28.9831 81.4856 28.9831 81.4856 28.9831 81.4856C28.9831 81.4856 28.9831 81.4856 28.9831 81.4856C28.9831 81.4856 28.9831 81.4856 28.9831 81.4856C28.9831 81.4856 28.9831 81.4856 28.9831 81.4856C28.9831 81.4856 28.9831 81.4856 28.9831 81.4856C28.9831 81.4856 28.9831 81.4856 28.9831 81.4856C28.9831 81.4856 28.9831 81.4856 28.9831 81.4856C28.9831 81.4856 28.9831 81.4856 28.9831 81.4856C28.9831 81.4856 28.9831 81.4856 28.9831 81.4856C28.9831 81.4856 28.9831 81.4856 28.9831 81.4856C28.9831 81.4856 28.9831 81.4856 28.9831 81.4856C28.9831 81.4856 28.9831 81.4856 28.9831 81.4856C28.9831 81.4856 28.9831 81.4856 28.9831 81.4856C28.9831 81.4856 28.9831 81.4856 28.9831 81.4856C28.9831 81.4856 28.9831 81.4856 28.9831 81.4856C28.9831 81.4856 28.9831 81.4856 28.9831 81.4856C28.9831 81.4856 28.9831 81.4856 28.9831 81.4856C28.9831 81.4856 28.9831 81.4856 28.9831 81.4856C28.9831 81.4856 28.9831 81.4856 28.9831 81.4856C28.9831 81.4856 28.9831 81.4856 28.9831 81.4856C28.9831 81.4856 28.9831 81.4856 28.9831 81.4856C28.9831 81.4856 28.9831 81.4856 28.9831 81.4856C28.9831 81.4856 28.9831 81.4856 28.9831 81.4856C28.9831 81.4856 28.9831 81.4856 28.9831 81.4856C28.9831 81.4856 28.9831 81.4856 28.9831 81.4856C28.9831 81.4856 28.9831 81.4856 28.9831 81.4856C28.9831 81.4856 28.9831 81.4856 28.9831 81.4856C28.9831 81.4856 28.9831 81.4856 28.9831 81.4856C28.9831 81.4856 28.9831 81.4856 28.9831 81.4856C28.9831 81.4856 28.9831 81.4856 28.9831 81.4856C28.9831 81.4856 28.9831 81.4856 28.9831 81.4856C28.9831 81.4856 28.9831 81.4856 28.9831 81.4856C28.9831 81.4856 28.9831 81.4856 28.9831 81.4856C28.9831 81.4856 28.9831 81.4856 28.9831 81.4856C28.9831 81.4856 28.9831 81.4856 28.9831 81.4856C28.9831 81.4856 28.9831 81.4856 28.9831 81.4856C28.9831 81.4856 28.9831 81.4856 28.9831 81.4856C28.9831 81.4856 28.9831 81.4856 28.9831 81.4856C28.9831 81.4856 28.9831 81.4856 28.9831 81.4856C28.9831 81.4856 28.9831 81.4856 28.9831 81.4856C28.9831 81.4856 28.9831 81.4856 28.9831 81.4856C28.9831 81.4856 28.9831 81.4856 28.9831 81.4856C28.9831 81.4856 28.9831 81.4856 28.9831 81.4856C28.9831 81.4856 28.9831 81.4856 28.9831 81.4856C28.9831 81.4856 28.9831 81.4856 28.9831 81.4856C28.9831 81.4856 28.9831 81.4856 28.9831 81.4856C28.9831 81.4856 28.9831 81.4856 28.9831 81.4856C28.9831 81.4856 28.9831 81.4856 28.9831 81.4856C28.9831 81.4856 28.9831 81.4856 28.9831 81.4856C28.9831 81.4856 28.9831 81.4856 28.9831 81.4856C28.9831 81.4856 28.9831 81.4856 28.9831 81.4856C28.9831 81.4856 28.9831 81.4856 28.9831 81.4856C28.9831 81.4856 28.9831 81.4856 28.9831 81.4856C28.9831 81.4856 28.9831 81.4856 28.9831 81.4856C28.9831 81.4856 28.9831 81.4856 28.9831 81.4856C28.9831 81.4856 28.9831 81.4856 28.9831 81.4856C28.9831 81.4856 28.9831 81.4856 28.9831 81.4856C28.9831 81.4856 28.9831 81.4856 28.9831 81.4856C28.9831 81.4856 28.9831 81.4856 28.9831 81.4856C28.9831 81.4856 28.9831 81.4856 28.9831 81.4856C28.9831 81.4856 28.9831 81.4856 28.9831 81.4856C28.9831 81.4856 28.9831 81.4856 28.9831 81.4856C28.9831 81.4856 28.9831 81.4856 28.9831 81.4856C28.9831 81.4856 28.9831 81.4856 28.9831 81.4856C28.9831 81.4856 28.9831 81.4856 28.9831 81.4856C28.9831 81.4856 28.9831 81.4856 28.9831 81.4856C28.9831 81.4856 28.9831 81.4856 28.9831 81.4856C28.9831 81.4856 28.9831 81.4856 28.9831 81.4856C28.9831 81.4856 28.9831 81.4856 28.9831 81.4856C28.9831 81.4856 28.9831 81.4856 28.9831 81.4856C28.9831 81.4856 28.9831 81.4856 28.9831 81.4856C28.9831 81.4856 28.9831 81.4856 28.9831 81.4856C28.9831 81.4856 28.9831 81.4856 28.9831 81.4856C28.9831 81.4856 28.9831 81.4856 28.9831 81.4856C28.9831 81.4856 28.9831 81.4856 28.9831 81.4856C28.9831 81.4856 28.9831 81.4856 28.9831 81.4856C28.9831 81.4856 28.9831 81.4856 28.9831 81.4856C28.9831 81.4856 28.9831 81.4856 28.9831 81.4856C28.9831 81.4856 28.9831 81.4856 28.9831 81.4856C28.9831 81.4856 28.9831 81.4856 28.9831 81.4856C28.9831 81.4856 28.9831 81.4856 28.9831 81.4856C28.9831 81.4856 28.9831 81.4856 28.9831 81.4856C28.9831 81.4856 28.9831 81.4856 28.9831 81.4856C28.9831 81.4856 28.9831 81.4856 28.9831 81.4856C28.9831 81.4856 28.9831 81.4856 28.9831 81.4856C28.9831 81.4856 28.9831 81.4856 28.9831 81.4856C28.9831 81.4856 28.9831 81.4856 28.9831 81.4856C28.9831 81.4856 28.9831 81.4856 28.9831 81.4856C28.9831 81.4856 28.9831 81.4856 28.9831 81.4856C28.9831 81.4856 28.9831 81.4856 28.9831 81.4856C28.9831 81.4856 28.9831 81.4856 28.9831 81.4856C28.9831 81.4856 28.9831 81.4856 28.9831 81.4856C28.9831 81.4856 28.9831 81.4856 28.9831 81.4856C28.9831 81.4856 28.9831 81.4856 28.9831 81.4856C28.9831 81.4856 28.9831 81.4856 28.9831 81.4856C28.9831 81.4856 28.9831 81.4856 28.9831 81.4856C28.9831 81.4856 28.9831 81.4856 28.9831 81.4856C28.9831 81.4856 28.9831 81.4856 28.9831 81.4856C28.9831 81.4856 28.9831 81.4856 28.9831 81.4856C28.9831 81.4856 28.9831 81.4856 28.9831 81.4856C28.9831 81.4856 28.9831 81.4856 28.9831 81.4856C28.9831 81.4856 28.9831 81.4856 28.9831 81.4856C28.9831 81.4856 28.9831 81.4856 28.9831 81.4856C28.9831 81.4856 28.9831 81.4856 28.9831 81.4856C28.9831 81.4856 28.9831 81.4856 28.9831 81.4856C28.9831 81.4856 28.9831 81.4856 28.9831 81.4856C28.9831 81.4856 28.9831 81.4856 28.9831 81.4856C28.9831 81.4856 28.9831 81.4856 28.9831 81.4856C28.9831 81.4856 28.9831 81.4856 28.9831 81.4856C28.9831 81.4856 28.9831 81.4856 28.9831 81.4856C28.9831 81.4856 28.9831 81.4856 28.9831 81.4856C28.9831 81.4856 28.9831 81.4856 28.9831 81.4856C28.9831 81.4856 28.9831 81.4856 28.9831 81.4856C28.9831 81.4856 28.9831 81.4856 28.9831 81.4856C28.9831 81.4856 28.9831 81.4856 28.9831 81.4856C28.9831 81.4856 28.9831 81.4856 28.9831 81.4856C28.9831 81.4856 28.9831 81.4856 28.9831 81.4856C28.9831 81.4856 28.9831 81.4856 28.9831 81.4856C28.9831 81.4856 28.9831 81.4856 28.9831 81.4856C28.9831 81.4856 28.9831 81.4856 28.9831 81.4856C28.9831 81.4856 28.9831 81.4856 28.9831 81.4856C28.9831 81.4856 28.9831 81.4856 28.9831 81.4856C28.9831 81.4856 28.9831 81.4856 28.9831 81.4856C28.9831 81.4856 28.9831 81.4856 28.9831 81.4856C28.9831 81.4856 28.9831 81.4856 28.9831 81.4856C28.9831 81.4856 28.9831 81.4856 28.9831 81.4856C28.9831 81.4856 28.9831 81.4856 28.9831 81.4856C28.9831 81.4856 28.9831 81.4856 28.9831 81.4856C28.9831 81.4856 28.9831 81.4856 28.9831 81.4856C28.9831 81.4856 28.9831 81.4856 28.9831 81.4856C28.9831 81.4856 28.9831 81.4856 28.9831 81.4856C28.9831 81.4856 28.9831 81.4856 28.9831 81.4856C28.9831 81.4856 28.9831 81.4856 28.9831 81.4856C28.9831 81.4856 28.9831 81.4856 28.9831 81.4856C28.9831 81.4856 28.9831 81.4856 28.9831 81.4856C28.9831 81.4856 28.9831 81.4856 28.9831 81.4856C28.9831 81.4856 28.9831 81.4856 28.9831 81.4856C28.9831 81.4856 28.9832 81.4856 28.9832 81.4856C28.9832 81.4856 28.9832 81.4856 28.9832 81.4856C28.9832 81.4856 28.9832 81.4856 28.9832 81.4856C28.9832 81.4856 28.9832 81.4856 28.9832 81.4856C28.9832 81.4856 28.9832 81.4856 28.9832 81.4856C28.9832 81.4856 28.9832 81.4856 28.9832 81.4856C28.9832 81.4856 28.9832 81.4856 28.9832 81.4856C28.9832 81.4856 28.9832 81.4856 28.9832 81.4856C28.9832 81.4856 28.9832 81.4856 28.9832 81.4856C28.9832 81.4856 28.9832 81.4856 28.9832 81.4856C28.9832 81.4856 28.9832 81.4856 28.9832 81.4856C28.9832 81.4856 28.9832 81.4856 28.9832 81.4856C28.9832 81.4856 28.9832 81.4856 28.9832 81.4856C28.9832 81.4856 28.9832 81.4856 28.9832 81.4856C28.9832 81.4856 28.9832 81.4856 28.9832 81.4856C28.9832 81.4856 28.9832 81.4856 28.9832 81.4856C28.9832 81.4856 28.9832 81.4856 28.9832 81.4856C28.9832 81.4856 28.9832 81.4856 28.9832 81.4856C28.9832 81.4856 28.9832 81.4856 28.9832 81.4856C28.9832 81.4856 28.9832 81.4856 28.9832 81.4856C28.9832 81.4856 28.9832 81.4856 28.9832 81.4856C28.9832 81.4856 28.9832 81.4856 28.9832 81.4856C28.9832 81.4856 28.9832 81.4856 28.9832 81.4856C28.9832 81.4856 28.9832 81.4856 28.9832 81.4856C28.9832 81.4856 28.9832 81.4856 28.9832 81.4856C28.9832 81.4856 28.9832 81.4856 28.9832 81.4856C28.9832 81.4856 28.9832 81.4856 28.9832 81.4856C28.9832 81.4856 28.9832 81.4856 28.9832 81.4856C28.9832 81.4856 28.9832 81.4856 28.9832 81.4856C28.9832 81.4856 28.9832 81.4856 28.9832 81.4856C28.9832 81.4856 28.9832 81.4856 28.9832 81.4856C28.9832 81.4856 28.9832 81.4856 28.9832 81.4856C28.9832 81.4856 28.9832 81.4856 28.9832 81.4856C28.9832 81.4856 28.9832 81.4856 28.9832 81.4856C28.9832 81.4856 28.9832 81.4856 28.9832 81.4856C28.9832 81.4856 28.9832 81.4856 28.9832 81.4856C28.9832 81.4856 28.9832 81.4856 28.9832 81.4856C28.9832 81.4856 28.9832 81.4856 28.9832 81.4856C28.9832 81.4856 28.9832 81.4856 28.9832 81.4856C28.9832 81.4856 28.9832 81.4856 28.9832 81.4856C28.9832 81.4856 28.9832 81.4856 28.9832 81.4856C28.9832 81.4856 28.9832 81.4856 28.9832 81.4856C28.9832 81.4856 28.9832 81.4856 28.9832 81.4856C28.9832 81.4856 28.9832 81.4856 28.9832 81.4856C28.9832 81.4856 28.9832 81.4856 28.9832 81.4856C28.9832 81.4856 28.9832 81.4856 28.9832 81.4856C28.9832 81.4856 28.9832 81.4856 28.9832 81.4856C28.9832 81.4856 28.9832 81.4856 28.9832 81.4856C28.9832 81.4856 28.9832 81.4856 28.9832 81.4856C28.9832 81.4856 28.9832 81.4856 28.9832 81.4856C28.9832 81.4856 28.9832 81.4856 28.9832 81.4856C28.9832 81.4856 28.9832 81.4856 28.9832 81.4856C28.9832 81.4856 28.9832 81.4856 28.9832 81.4856C28.9832 81.4856 28.9832 81.4856 28.9832 81.4856C28.9832 81.4856 28.9832 81.4856 28.9832 81.4856C28.9832 81.4856 28.9832 81.4856 28.9832 81.4856C28.9832 81.4856 28.9832 81.4856 28.9832 81.4856C28.9832 81.4856 28.9832 81.4856 28.9832 81.4856C28.9832 81.4856 28.9832 81.4856 28.9832 81.4856C28.9832 81.4856 28.9832 81.4856 28.9832 81.4856C28.9832 81.4856 28.9832 81.4856 28.9832 81.4856C28.9832 81.4856 28.9832 81.4856 28.9832 81.4856C28.9832 81.4856 28.9832 81.4856 28.9832 81.4856C28.9832 81.4856 28.9832 81.4856 28.9832 81.4856C28.9832 81.4856 28.9832 81.4856 28.9832 81.4856C28.9832 81.4856 28.9832 81.4856 28.9832 81.4856C28.9832 81.4856 28.9832 81.4856 28.9832 81.4856C28.9832 81.4856 28.9832 81.4856 28.9832 81.4856C28.9832 81.4856 28.9832 81.4856 28.9832 81.4856C28.9832 81.4856 28.9832 81.4856 28.9832 81.4856C28.9832 81.4856 28.9832 81.4856 28.9832 81.4856C28.9832 81.4856 28.9832 81.4856 28.9832 81.4856C28.9832 81.4856 28.9832 81.4856 28.9832 81.4856C28.9832 81.4856 28.9832 81.4856 28.9832 81.4856C28.9832 81.4856 28.9832 81.4856 28.9832 81.4856C28.9832 81.4856 28.9832 81.4856 28.9832 81.4856C28.9832 81.4856 28.9832 81.4856 28.9832 81.4856C28.9832 81.4856 28.9832 81.4856 28.9832 81.4856C28.9832 81.4856 28.9832 81.4856 28.9832 81.4856C28.9832 81.4856 28.9832 81.4856 28.9832 81.4856C28.9832 81.4856 28.9832 81.4856 28.9832 81.4856C28.9832 81.4856 28.9832 81.4856 28.9832 81.4856C28.9832 81.4856 28.9832 81.4856 28.9832 81.4856C28.9832 81.4856 28.9832 81.4856 28.9832 81.4856C28.9832 81.4856 28.9832 81.4856 28.9832 81.4856C28.9832 81.4856 28.9832 81.4856 28.9832 81.4856C28.9832 81.4856 28.9832 81.4856 28.9832 81.4856C28.9832 81.4856 28.9832 81.4856 28.9832 81.4856C28.9832 81.4856 28.9832 81.4856 28.9832 81.4856C28.9832 81.4856 28.9832 81.4856 28.9832 81.4856C28.9832 81.4856 28.9832 81.4856 28.9832 81.4856C28.9832 81.4856 28.9832 81.4856 28.9832 81.4856C28.9832 81.4856 28.9832 81.4856 28.9832 81.4856C28.9832 81.4856 28.9832 81.4856 28.9832 81.4856C28.9832 81.4856 28.9832 81.4856 28.9832 81.4856C28.9832 81.4856 28.9832 81.4856 28.9832 81.4856C28.9832 81.4856 28.9832 81.4856 28.9832 81.4856C28.9832 81.4856 28.9832 81.4856 28.9832 81.4856C28.9832 81.4856 28.9832 81.4856 28.9832 81.4856C28.9832 81.4856 28.9832 81.4856 28.9832 81.4856C28.9832 81.4856 28.9832 81.4856 28.9832 81.4856C28.9832 81.4856 28.9832 81.4856 28.9832 81.4856C28.9832 81.4856 28.9832 81.4856 28.9832 81.4856C28.9832 81.4856 28.9832 81.4856 28.9832 81.4856C28.9832 81.4856 28.9832 81.4856 28.9832 81.4856C28.9832 81.4856 28.9832 81.4856 28.9832 81.4856C28.9832 81.4856 28.9832 81.4856 28.9832 81.4856C28.9832 81.4856 28.9832 81.4856 28.9832 81.4856C28.9832 81.4856 28.9832 81.4856 28.9832 81.4856C28.9832 81.4856 28.9832 81.4856 28.9832 81.4856C28.9832 81.4856 28.9832 81.4856 28.9832 81.4856C28.9832 81.4856 28.9832 81.4856 28.9832 81.4856C28.9832 81.4856 28.9832 81.4856 28.9832 81.4856C28.9832 81.4856 28.9832 81.4856 28.9832 81.4856C28.9832 81.4856 28.9832 81.4856 28.9832 81.4856C28.9832 81.4856 28.9832 81.4856 28.9832 81.4856C28.9832 81.4856 28.9832 81.4856 28.9832 81.4856C28.9832 81.4856 28.9832 81.4856 28.9832 81.4856C28.9832 81.4856 28.9832 81.4856 28.9832 81.4856C28.9832 81.4856 28.9832 81.4856 28.9832 81.4856C28.9832 81.4856 28.9832 81.4856 28.9832 81.4856C28.9832 81.4856 28.9832 81.4856 28.9832 81.4856C28.9832 81.4856 28.9832 81.4856 28.9832 81.4856C28.9832 81.4856 28.9832 81.4856 28.9832 81.4856C28.9832 81.4856 28.9832 81.4856 28.9832 81.4856C28.9832 81.4856 28.9832 81.4856 28.9832 81.4856C28.9832 81.4856 28.9832 81.4856 28.9832 81.4856V77.4856Z" fill="#202020" mask="url(#path-2-inside-1_2874_6080)"/>
<g filter="url(#filter0_f_2874_6080)">
<rect x="252.393" y="194.586" width="413.007" height="139.159" rx="21" fill="#51CAFF" fill-opacity="0.17"/>
</g>
<rect x="264.469" y="235.861" width="388.854" height="49.531" rx="24.7655" fill="#29AAE3"/>
<path d="M431.41 263.834V252.198H435.774C436.668 252.198 437.418 252.353 438.024 252.664C438.634 252.974 439.094 253.41 439.405 253.97C439.719 254.527 439.876 255.177 439.876 255.919C439.876 256.665 439.717 257.313 439.399 257.862C439.084 258.408 438.62 258.83 438.007 259.129C437.393 259.425 436.639 259.573 435.745 259.573H432.637V257.823H435.461C435.984 257.823 436.412 257.751 436.745 257.607C437.079 257.459 437.325 257.245 437.484 256.965C437.647 256.681 437.728 256.332 437.728 255.919C437.728 255.506 437.647 255.154 437.484 254.862C437.321 254.567 437.073 254.343 436.74 254.192C436.406 254.037 435.976 253.959 435.45 253.959H433.518V263.834H431.41ZM437.422 258.561L440.302 263.834H437.95L435.12 258.561H437.422ZM445.464 264.004C444.589 264.004 443.833 263.823 443.197 263.459C442.565 263.092 442.078 262.573 441.737 261.902C441.396 261.228 441.226 260.434 441.226 259.521C441.226 258.624 441.396 257.836 441.737 257.158C442.082 256.476 442.563 255.946 443.18 255.567C443.798 255.184 444.523 254.993 445.356 254.993C445.894 254.993 446.402 255.08 446.879 255.254C447.36 255.425 447.784 255.69 448.152 256.05C448.523 256.41 448.815 256.868 449.027 257.425C449.239 257.978 449.345 258.637 449.345 259.402V260.033H442.191V258.646H447.373C447.369 258.253 447.284 257.902 447.118 257.595C446.951 257.285 446.718 257.04 446.419 256.862C446.123 256.684 445.779 256.595 445.385 256.595C444.964 256.595 444.595 256.698 444.277 256.902C443.958 257.103 443.71 257.368 443.532 257.698C443.358 258.023 443.269 258.381 443.265 258.771V259.982C443.265 260.489 443.358 260.925 443.544 261.289C443.729 261.648 443.989 261.925 444.322 262.118C444.655 262.307 445.046 262.402 445.493 262.402C445.792 262.402 446.063 262.36 446.305 262.277C446.548 262.19 446.758 262.063 446.936 261.896C447.114 261.73 447.248 261.523 447.339 261.277L449.26 261.493C449.138 262.001 448.907 262.444 448.566 262.823C448.229 263.198 447.798 263.489 447.271 263.698C446.744 263.902 446.142 264.004 445.464 264.004ZM457.983 257.414L456.108 257.618C456.055 257.429 455.962 257.251 455.829 257.084C455.7 256.917 455.526 256.783 455.306 256.681C455.087 256.578 454.818 256.527 454.5 256.527C454.072 256.527 453.712 256.62 453.42 256.806C453.132 256.991 452.99 257.232 452.994 257.527C452.99 257.781 453.083 257.987 453.272 258.146C453.466 258.306 453.784 258.436 454.227 258.539L455.716 258.857C456.541 259.035 457.155 259.317 457.556 259.703C457.962 260.09 458.166 260.595 458.17 261.22C458.166 261.77 458.005 262.254 457.687 262.675C457.373 263.092 456.935 263.417 456.375 263.652C455.814 263.887 455.17 264.004 454.443 264.004C453.375 264.004 452.515 263.781 451.863 263.334C451.212 262.883 450.824 262.256 450.699 261.453L452.704 261.26C452.795 261.654 452.988 261.951 453.284 262.152C453.579 262.353 453.964 262.453 454.437 262.453C454.926 262.453 455.318 262.353 455.613 262.152C455.913 261.951 456.062 261.703 456.062 261.408C456.062 261.158 455.966 260.951 455.772 260.789C455.583 260.626 455.288 260.501 454.886 260.414L453.397 260.101C452.56 259.927 451.941 259.633 451.539 259.22C451.138 258.804 450.939 258.277 450.943 257.641C450.939 257.103 451.085 256.637 451.38 256.243C451.68 255.845 452.094 255.539 452.625 255.323C453.159 255.103 453.774 254.993 454.471 254.993C455.494 254.993 456.299 255.211 456.886 255.646C457.477 256.082 457.842 256.671 457.983 257.414ZM463.662 267.289C462.923 267.289 462.289 267.188 461.758 266.987C461.228 266.79 460.802 266.525 460.48 266.192C460.158 265.859 459.934 265.489 459.809 265.084L461.662 264.635C461.745 264.806 461.866 264.974 462.025 265.141C462.184 265.311 462.398 265.451 462.667 265.561C462.94 265.675 463.283 265.732 463.696 265.732C464.279 265.732 464.762 265.59 465.145 265.306C465.527 265.025 465.718 264.563 465.718 263.919V262.266H465.616C465.51 262.478 465.355 262.696 465.15 262.919C464.949 263.143 464.682 263.33 464.349 263.482C464.02 263.633 463.605 263.709 463.105 263.709C462.434 263.709 461.826 263.552 461.281 263.237C460.739 262.919 460.307 262.446 459.985 261.817C459.667 261.184 459.508 260.393 459.508 259.442C459.508 258.484 459.667 257.675 459.985 257.016C460.307 256.353 460.741 255.851 461.287 255.51C461.832 255.165 462.44 254.993 463.11 254.993C463.622 254.993 464.042 255.08 464.372 255.254C464.705 255.425 464.97 255.631 465.167 255.874C465.364 256.112 465.514 256.338 465.616 256.55H465.73V255.107H467.758V263.976C467.758 264.722 467.58 265.34 467.224 265.828C466.868 266.317 466.381 266.682 465.764 266.925C465.146 267.167 464.446 267.289 463.662 267.289ZM463.679 262.095C464.114 262.095 464.485 261.989 464.792 261.777C465.099 261.565 465.332 261.26 465.491 260.862C465.65 260.465 465.73 259.987 465.73 259.431C465.73 258.881 465.65 258.4 465.491 257.987C465.336 257.575 465.105 257.254 464.798 257.027C464.495 256.796 464.122 256.681 463.679 256.681C463.22 256.681 462.838 256.8 462.531 257.039C462.224 257.277 461.993 257.605 461.838 258.021C461.682 258.434 461.605 258.904 461.605 259.431C461.605 259.965 461.682 260.432 461.838 260.834C461.997 261.232 462.23 261.542 462.537 261.766C462.847 261.985 463.228 262.095 463.679 262.095ZM472.378 264.01C471.824 264.01 471.326 263.912 470.883 263.715C470.444 263.514 470.095 263.218 469.838 262.828C469.584 262.438 469.457 261.957 469.457 261.385C469.457 260.893 469.548 260.485 469.73 260.164C469.912 259.842 470.16 259.584 470.474 259.391C470.789 259.198 471.143 259.052 471.537 258.953C471.934 258.851 472.345 258.777 472.77 258.732C473.281 258.679 473.696 258.631 474.014 258.59C474.332 258.544 474.563 258.476 474.707 258.385C474.855 258.29 474.929 258.145 474.929 257.948V257.914C474.929 257.485 474.802 257.154 474.548 256.919C474.294 256.684 473.929 256.567 473.451 256.567C472.948 256.567 472.548 256.677 472.253 256.896C471.961 257.116 471.764 257.376 471.662 257.675L469.741 257.402C469.893 256.872 470.143 256.429 470.491 256.073C470.84 255.713 471.266 255.444 471.77 255.266C472.273 255.084 472.83 254.993 473.44 254.993C473.86 254.993 474.279 255.042 474.696 255.141C475.112 255.239 475.493 255.402 475.838 255.629C476.182 255.853 476.459 256.158 476.667 256.544C476.879 256.931 476.985 257.414 476.985 257.993V263.834H475.008V262.635H474.94C474.815 262.878 474.639 263.105 474.412 263.317C474.188 263.525 473.906 263.694 473.565 263.823C473.228 263.948 472.832 264.01 472.378 264.01ZM472.912 262.499C473.324 262.499 473.682 262.417 473.985 262.254C474.289 262.088 474.521 261.868 474.684 261.595C474.851 261.323 474.934 261.025 474.934 260.703V259.675C474.87 259.728 474.76 259.777 474.605 259.823C474.453 259.868 474.283 259.908 474.093 259.942C473.904 259.976 473.717 260.006 473.531 260.033C473.345 260.059 473.184 260.082 473.048 260.101C472.741 260.143 472.467 260.211 472.224 260.306C471.982 260.4 471.79 260.533 471.65 260.703C471.51 260.87 471.44 261.086 471.44 261.351C471.44 261.73 471.578 262.016 471.855 262.209C472.131 262.402 472.484 262.499 472.912 262.499ZM483.412 255.107V256.698H478.395V255.107H483.412ZM479.633 253.016H481.69V261.209C481.69 261.485 481.732 261.698 481.815 261.845C481.902 261.989 482.016 262.088 482.156 262.141C482.296 262.194 482.451 262.22 482.622 262.22C482.751 262.22 482.868 262.211 482.974 262.192C483.084 262.173 483.167 262.156 483.224 262.141L483.571 263.749C483.461 263.787 483.304 263.828 483.099 263.874C482.898 263.919 482.652 263.946 482.36 263.953C481.845 263.968 481.381 263.891 480.968 263.72C480.556 263.546 480.228 263.277 479.985 262.914C479.747 262.55 479.629 262.095 479.633 261.55V253.016ZM487.643 264.01C487.09 264.01 486.592 263.912 486.149 263.715C485.709 263.514 485.361 263.218 485.103 262.828C484.85 262.438 484.723 261.957 484.723 261.385C484.723 260.893 484.814 260.485 484.995 260.164C485.177 259.842 485.425 259.584 485.74 259.391C486.054 259.198 486.408 259.052 486.802 258.953C487.2 258.851 487.611 258.777 488.035 258.732C488.547 258.679 488.961 258.631 489.28 258.59C489.598 258.544 489.829 258.476 489.973 258.385C490.12 258.29 490.194 258.145 490.194 257.948V257.914C490.194 257.485 490.067 257.154 489.814 256.919C489.56 256.684 489.194 256.567 488.717 256.567C488.213 256.567 487.814 256.677 487.518 256.896C487.226 257.116 487.03 257.376 486.927 257.675L485.007 257.402C485.158 256.872 485.408 256.429 485.757 256.073C486.105 255.713 486.531 255.444 487.035 255.266C487.539 255.084 488.096 254.993 488.706 254.993C489.126 254.993 489.545 255.042 489.961 255.141C490.378 255.239 490.759 255.402 491.103 255.629C491.448 255.853 491.725 256.158 491.933 256.544C492.145 256.931 492.251 257.414 492.251 257.993V263.834H490.274V262.635H490.206C490.081 262.878 489.905 263.105 489.677 263.317C489.454 263.525 489.172 263.694 488.831 263.823C488.494 263.948 488.098 264.01 487.643 264.01ZM488.177 262.499C488.59 262.499 488.948 262.417 489.251 262.254C489.554 262.088 489.787 261.868 489.95 261.595C490.117 261.323 490.2 261.025 490.2 260.703V259.675C490.136 259.728 490.026 259.777 489.87 259.823C489.719 259.868 489.548 259.908 489.359 259.942C489.17 259.976 488.982 260.006 488.797 260.033C488.611 260.059 488.45 260.082 488.314 260.101C488.007 260.143 487.732 260.211 487.49 260.306C487.247 260.4 487.056 260.533 486.916 260.703C486.776 260.87 486.706 261.086 486.706 261.351C486.706 261.73 486.844 262.016 487.12 262.209C487.397 262.402 487.749 262.499 488.177 262.499ZM494.319 263.834V255.107H496.314V256.561H496.405C496.564 256.057 496.836 255.669 497.223 255.396C497.613 255.12 498.058 254.982 498.558 254.982C498.672 254.982 498.798 254.987 498.939 254.999C499.083 255.006 499.202 255.02 499.297 255.039V256.931C499.209 256.9 499.071 256.874 498.882 256.851C498.696 256.825 498.516 256.811 498.342 256.811C497.967 256.811 497.63 256.893 497.331 257.056C497.035 257.215 496.802 257.436 496.632 257.72C496.461 258.004 496.376 258.332 496.376 258.703V263.834H494.319Z" fill="white"/>
<rect x="265.469" y="57.6074" width="386.854" height="148.952" rx="29" stroke="#363636" stroke-width="2"/>
<path d="M793.407 56.6074L793.407 285.394" stroke="#363636" stroke-width="2" stroke-linecap="round" stroke-dasharray="3 3"/>
<path d="M125.593 56.6074L125.593 285.394" stroke="#363636" stroke-width="2" stroke-linecap="round" stroke-dasharray="3 3"/>
<path fill-rule="evenodd" clip-rule="evenodd" d="M342.177 85.7377C342.177 91.2225 337.663 95.6688 332.096 95.6688C326.528 95.6688 322.015 91.2225 322.015 85.7377C322.015 85.4591 322.027 85.183 322.049 84.9102H319.495C310.215 84.9102 302.693 92.3206 302.693 101.462V110.599C297.518 111.02 293.452 115.29 293.452 120.496C293.452 125.702 297.518 129.973 302.693 130.393V179.255H332.516C348.987 179.255 362.339 166.101 362.339 149.876V130.29C367.107 129.502 370.74 125.417 370.74 120.496C370.74 115.576 367.107 111.491 362.339 110.703V101.462C362.339 92.3206 354.817 84.9102 345.537 84.9102H342.142C342.165 85.183 342.177 85.4591 342.177 85.7377Z" fill="#8F8F8F"/>
<path d="M430.295 96.2653H433.954V110.583C433.947 111.896 433.669 113.026 433.119 113.974C432.569 114.915 431.8 115.641 430.812 116.152C429.831 116.655 428.687 116.907 427.382 116.907C426.188 116.907 425.115 116.695 424.16 116.271C423.212 115.84 422.46 115.204 421.903 114.362C421.346 113.52 421.068 112.473 421.068 111.22H424.737C424.743 111.77 424.863 112.244 425.095 112.642C425.333 113.039 425.661 113.344 426.079 113.556C426.497 113.769 426.977 113.875 427.521 113.875C428.111 113.875 428.611 113.752 429.022 113.507C429.433 113.255 429.745 112.884 429.957 112.393C430.176 111.903 430.288 111.299 430.295 110.583V96.2653ZM456.152 106.447C456.152 108.641 455.741 110.52 454.919 112.085C454.104 113.643 452.99 114.836 451.578 115.664C450.173 116.493 448.579 116.907 446.796 116.907C445.012 116.907 443.415 116.493 442.003 115.664C440.598 114.829 439.484 113.633 438.662 112.075C437.847 110.511 437.439 108.635 437.439 106.447C437.439 104.253 437.847 102.377 438.662 100.819C439.484 99.2549 440.598 98.0584 442.003 97.2298C443.415 96.4012 445.012 95.9869 446.796 95.9869C448.579 95.9869 450.173 96.4012 451.578 97.2298C452.99 98.0584 454.104 99.2549 454.919 100.819C455.741 102.377 456.152 104.253 456.152 106.447ZM452.443 106.447C452.443 104.903 452.201 103.6 451.718 102.539C451.24 101.472 450.577 100.667 449.729 100.123C448.88 99.573 447.903 99.2979 446.796 99.2979C445.689 99.2979 444.711 99.573 443.862 100.123C443.014 100.667 442.348 101.472 441.864 102.539C441.387 103.6 441.148 104.903 441.148 106.447C441.148 107.992 441.387 109.297 441.864 110.365C442.348 111.425 443.014 112.231 443.862 112.781C444.711 113.324 445.689 113.596 446.796 113.596C447.903 113.596 448.88 113.324 449.729 112.781C450.577 112.231 451.24 111.425 451.718 110.365C452.201 109.297 452.443 107.992 452.443 106.447ZM459.64 116.629V96.2653H467.435C468.907 96.2653 470.13 96.4973 471.104 96.9613C472.085 97.4187 472.818 98.0451 473.302 98.8406C473.792 99.636 474.037 100.538 474.037 101.545C474.037 102.374 473.878 103.083 473.56 103.673C473.242 104.256 472.814 104.73 472.278 105.095C471.741 105.459 471.141 105.721 470.478 105.88V106.079C471.2 106.119 471.893 106.341 472.556 106.745C473.225 107.143 473.772 107.707 474.197 108.436C474.621 109.165 474.833 110.047 474.833 111.081C474.833 112.135 474.578 113.083 474.067 113.924C473.557 114.76 472.788 115.419 471.76 115.903C470.733 116.387 469.44 116.629 467.883 116.629H459.64ZM463.329 113.547H467.296C468.635 113.547 469.6 113.291 470.189 112.781C470.786 112.264 471.084 111.601 471.084 110.792C471.084 110.189 470.935 109.645 470.637 109.162C470.339 108.671 469.914 108.287 469.364 108.008C468.814 107.723 468.158 107.581 467.395 107.581H463.329V113.547ZM463.329 104.926H466.978C467.614 104.926 468.188 104.81 468.698 104.578C469.208 104.339 469.609 104.004 469.901 103.574C470.199 103.136 470.349 102.619 470.349 102.022C470.349 101.234 470.07 100.584 469.513 100.074C468.963 99.5631 468.144 99.3079 467.057 99.3079H463.329V104.926ZM478.042 116.629V96.2653H491.088V99.3576H481.731V104.886H490.193V107.978H481.731V116.629H478.042ZM494.52 116.629H490.583L497.752 96.2653H502.306L509.485 116.629H505.547L500.108 100.441H499.949L494.52 116.629ZM494.65 108.645H505.388V111.608H494.65V108.645ZM522.906 101.863C522.813 100.995 522.422 100.319 521.732 99.8349C521.05 99.351 520.161 99.109 519.068 99.109C518.299 99.109 517.639 99.225 517.089 99.457C516.539 99.689 516.118 100.004 515.826 100.402C515.535 100.799 515.385 101.253 515.379 101.764C515.379 102.188 515.475 102.556 515.667 102.868C515.866 103.179 516.134 103.444 516.472 103.663C516.811 103.875 517.185 104.054 517.596 104.2C518.007 104.346 518.421 104.468 518.839 104.568L520.748 105.045C521.517 105.224 522.256 105.466 522.965 105.771C523.681 106.076 524.321 106.46 524.884 106.924C525.454 107.388 525.905 107.949 526.237 108.605C526.568 109.261 526.734 110.03 526.734 110.912C526.734 112.105 526.429 113.155 525.819 114.064C525.209 114.965 524.328 115.671 523.174 116.181C522.027 116.685 520.639 116.937 519.008 116.937C517.424 116.937 516.048 116.692 514.882 116.201C513.722 115.711 512.813 114.995 512.157 114.054C511.508 113.112 511.156 111.966 511.103 110.613H514.732C514.785 111.323 515.004 111.913 515.389 112.383C515.773 112.854 516.274 113.205 516.89 113.437C517.513 113.669 518.209 113.785 518.978 113.785C519.78 113.785 520.483 113.666 521.086 113.427C521.696 113.182 522.173 112.844 522.518 112.413C522.863 111.975 523.038 111.465 523.045 110.882C523.038 110.351 522.883 109.914 522.578 109.569C522.273 109.218 521.845 108.926 521.295 108.694C520.751 108.456 520.115 108.243 519.386 108.058L517.069 107.461C515.392 107.03 514.066 106.377 513.092 105.502C512.124 104.621 511.64 103.451 511.64 101.993C511.64 100.793 511.965 99.7421 512.615 98.8406C513.271 97.939 514.162 97.2397 515.289 96.7425C516.416 96.2388 517.692 95.9869 519.117 95.9869C520.562 95.9869 521.829 96.2388 522.916 96.7425C524.009 97.2397 524.868 97.9324 525.491 98.8207C526.114 99.7023 526.436 100.717 526.455 101.863H522.906ZM529.128 99.3576V96.2653H545.375V99.3576H539.081V116.629H535.422V99.3576H529.128Z" fill="#8F8F8F"/>
<path d="M425.95 141.08V161.443H422.261V141.08H425.95ZM433.385 152.494V161.443H429.785V146.171H433.226V148.766H433.405C433.756 147.911 434.316 147.231 435.085 146.727C435.861 146.224 436.818 145.972 437.959 145.972C439.013 145.972 439.931 146.197 440.713 146.648C441.502 147.099 442.112 147.752 442.542 148.607C442.98 149.462 443.195 150.499 443.189 151.719V161.443H439.589V152.276C439.589 151.255 439.324 150.456 438.794 149.879C438.27 149.303 437.544 149.014 436.616 149.014C435.987 149.014 435.426 149.154 434.936 149.432C434.452 149.704 434.071 150.098 433.792 150.615C433.521 151.132 433.385 151.759 433.385 152.494ZM453.49 167.489C452.197 167.489 451.087 167.313 450.159 166.962C449.231 166.617 448.485 166.153 447.922 165.57C447.358 164.986 446.967 164.34 446.748 163.631L449.99 162.845C450.136 163.144 450.348 163.439 450.626 163.73C450.905 164.029 451.279 164.274 451.75 164.466C452.227 164.665 452.827 164.764 453.55 164.764C454.57 164.764 455.416 164.516 456.085 164.019C456.755 163.528 457.089 162.719 457.089 161.593V158.699H456.91C456.725 159.07 456.453 159.451 456.095 159.843C455.744 160.234 455.276 160.562 454.693 160.827C454.116 161.092 453.39 161.225 452.515 161.225C451.342 161.225 450.278 160.95 449.324 160.399C448.376 159.843 447.62 159.014 447.057 157.914C446.5 156.807 446.221 155.421 446.221 153.757C446.221 152.08 446.5 150.665 447.057 149.512C447.62 148.352 448.379 147.473 449.334 146.877C450.288 146.273 451.352 145.972 452.525 145.972C453.42 145.972 454.156 146.124 454.733 146.429C455.316 146.727 455.78 147.089 456.125 147.513C456.47 147.931 456.731 148.325 456.91 148.696H457.109V146.171H460.659V161.692C460.659 162.998 460.347 164.078 459.724 164.933C459.101 165.789 458.249 166.428 457.169 166.852C456.088 167.277 454.862 167.489 453.49 167.489ZM453.52 158.401C454.282 158.401 454.932 158.215 455.469 157.844C456.006 157.473 456.413 156.939 456.692 156.243C456.97 155.547 457.109 154.712 457.109 153.737C457.109 152.776 456.97 151.934 456.692 151.212C456.42 150.489 456.015 149.929 455.479 149.531C454.948 149.127 454.295 148.925 453.52 148.925C452.718 148.925 452.048 149.134 451.511 149.551C450.974 149.969 450.57 150.542 450.298 151.271C450.026 151.994 449.89 152.816 449.89 153.737C449.89 154.672 450.026 155.491 450.298 156.193C450.577 156.889 450.984 157.433 451.521 157.824C452.065 158.209 452.731 158.401 453.52 158.401ZM464.348 161.443V146.171H467.838V148.716H467.997C468.275 147.834 468.753 147.155 469.429 146.678C470.112 146.194 470.89 145.952 471.765 145.952C471.964 145.952 472.186 145.962 472.432 145.982C472.684 145.995 472.892 146.018 473.058 146.051V149.362C472.906 149.309 472.664 149.263 472.332 149.223C472.007 149.177 471.693 149.154 471.388 149.154C470.731 149.154 470.141 149.296 469.618 149.581C469.101 149.86 468.693 150.247 468.395 150.744C468.096 151.242 467.947 151.815 467.947 152.465V161.443H464.348ZM481.582 161.742C480.051 161.742 478.728 161.423 477.615 160.787C476.508 160.144 475.656 159.236 475.059 158.063C474.463 156.883 474.164 155.494 474.164 153.896C474.164 152.325 474.463 150.947 475.059 149.76C475.662 148.567 476.504 147.639 477.585 146.976C478.665 146.307 479.935 145.972 481.393 145.972C482.334 145.972 483.222 146.124 484.058 146.429C484.9 146.727 485.642 147.191 486.285 147.821C486.935 148.451 487.445 149.253 487.816 150.227C488.187 151.195 488.373 152.349 488.373 153.688V154.791H475.855V152.365H484.923C484.916 151.676 484.767 151.063 484.475 150.526C484.184 149.982 483.776 149.555 483.252 149.243C482.735 148.932 482.132 148.776 481.443 148.776C480.707 148.776 480.061 148.955 479.504 149.313C478.947 149.664 478.513 150.128 478.201 150.705C477.896 151.275 477.74 151.901 477.734 152.584V154.702C477.734 155.59 477.896 156.352 478.221 156.989C478.546 157.619 479 158.102 479.583 158.441C480.167 158.772 480.849 158.938 481.632 158.938C482.155 158.938 482.629 158.865 483.053 158.719C483.478 158.566 483.846 158.344 484.157 158.053C484.469 157.761 484.704 157.4 484.863 156.969L488.224 157.347C488.012 158.235 487.607 159.011 487.011 159.673C486.421 160.33 485.665 160.84 484.744 161.205C483.822 161.563 482.768 161.742 481.582 161.742ZM503.489 150.208L500.208 150.566C500.115 150.234 499.953 149.923 499.721 149.631C499.495 149.339 499.19 149.104 498.806 148.925C498.421 148.746 497.951 148.656 497.394 148.656C496.645 148.656 496.015 148.819 495.505 149.144C495.001 149.468 494.752 149.889 494.759 150.406C494.752 150.851 494.915 151.212 495.246 151.49C495.584 151.769 496.141 151.997 496.917 152.176L499.522 152.733C500.967 153.045 502.041 153.539 502.743 154.215C503.453 154.891 503.811 155.776 503.817 156.869C503.811 157.831 503.529 158.679 502.972 159.415C502.422 160.144 501.656 160.714 500.675 161.125C499.694 161.536 498.567 161.742 497.295 161.742C495.425 161.742 493.921 161.351 492.78 160.568C491.64 159.78 490.961 158.682 490.742 157.277L494.252 156.939C494.411 157.628 494.749 158.149 495.266 158.5C495.783 158.852 496.456 159.027 497.285 159.027C498.14 159.027 498.826 158.852 499.343 158.5C499.867 158.149 500.128 157.715 500.128 157.198C500.128 156.76 499.959 156.399 499.621 156.114C499.29 155.829 498.773 155.61 498.07 155.458L495.465 154.911C494 154.606 492.916 154.092 492.214 153.369C491.511 152.64 491.163 151.719 491.17 150.605C491.163 149.664 491.418 148.849 491.935 148.159C492.459 147.463 493.185 146.926 494.113 146.548C495.047 146.164 496.125 145.972 497.344 145.972C499.134 145.972 500.543 146.353 501.57 147.115C502.604 147.878 503.244 148.908 503.489 150.208ZM518.856 150.208L515.575 150.566C515.482 150.234 515.32 149.923 515.088 149.631C514.863 149.339 514.558 149.104 514.173 148.925C513.789 148.746 513.318 148.656 512.761 148.656C512.012 148.656 511.382 148.819 510.872 149.144C510.368 149.468 510.12 149.889 510.126 150.406C510.12 150.851 510.282 151.212 510.613 151.49C510.952 151.769 511.508 151.997 512.284 152.176L514.889 152.733C516.334 153.045 517.408 153.539 518.111 154.215C518.82 154.891 519.178 155.776 519.184 156.869C519.178 157.831 518.896 158.679 518.339 159.415C517.789 160.144 517.024 160.714 516.042 161.125C515.061 161.536 513.934 161.742 512.662 161.742C510.792 161.742 509.288 161.351 508.148 160.568C507.007 159.78 506.328 158.682 506.109 157.277L509.619 156.939C509.778 157.628 510.116 158.149 510.633 158.5C511.15 158.852 511.823 159.027 512.652 159.027C513.507 159.027 514.193 158.852 514.71 158.5C515.234 158.149 515.496 157.715 515.496 157.198C515.496 156.76 515.327 156.399 514.988 156.114C514.657 155.829 514.14 155.61 513.437 155.458L510.832 154.911C509.367 154.606 508.283 154.092 507.581 153.369C506.878 152.64 506.53 151.719 506.537 150.605C506.53 149.664 506.785 148.849 507.302 148.159C507.826 147.463 508.552 146.926 509.48 146.548C510.415 146.164 511.492 145.972 512.711 145.972C514.501 145.972 515.91 146.353 516.937 147.115C517.971 147.878 518.611 148.908 518.856 150.208ZM528.814 161.742C527.323 161.742 526.03 161.414 524.937 160.757C523.843 160.101 522.994 159.183 522.391 158.003C521.795 156.823 521.496 155.444 521.496 153.867C521.496 152.289 521.795 150.907 522.391 149.72C522.994 148.534 523.843 147.612 524.937 146.956C526.03 146.3 527.323 145.972 528.814 145.972C530.306 145.972 531.599 146.3 532.692 146.956C533.786 147.612 534.631 148.534 535.228 149.72C535.831 150.907 536.133 152.289 536.133 153.867C536.133 155.444 535.831 156.823 535.228 158.003C534.631 159.183 533.786 160.101 532.692 160.757C531.599 161.414 530.306 161.742 528.814 161.742ZM528.834 158.858C529.643 158.858 530.319 158.636 530.863 158.192C531.406 157.741 531.811 157.138 532.076 156.382C532.348 155.627 532.483 154.785 532.483 153.857C532.483 152.922 532.348 152.077 532.076 151.321C531.811 150.559 531.406 149.952 530.863 149.502C530.319 149.051 529.643 148.825 528.834 148.825C528.006 148.825 527.316 149.051 526.766 149.502C526.223 149.952 525.815 150.559 525.543 151.321C525.278 152.077 525.145 152.922 525.145 153.857C525.145 154.785 525.278 155.627 525.543 156.382C525.815 157.138 526.223 157.741 526.766 158.192C527.316 158.636 528.006 158.858 528.834 158.858Z" fill="#8F8F8F"/>
<defs>
<filter id="filter0_f_2874_6080" x="152.393" y="94.5859" width="613.007" height="339.158" filterUnits="userSpaceOnUse" color-interpolation-filters="sRGB">
<feFlood flood-opacity="0" result="BackgroundImageFix"/>
<feBlend mode="normal" in="SourceGraphic" in2="BackgroundImageFix" result="shape"/>
<feGaussianBlur stdDeviation="50" result="effect1_foregroundBlur_2874_6080"/>
</filter>
</defs>
</svg>
