<svg width="26" height="26" viewBox="0 0 26 26" fill="none" xmlns="http://www.w3.org/2000/svg">
<rect x="1" y="1" width="24" height="24" rx="12" stroke="#363636" stroke-width="2"/>
<path d="M16.3333 12.3333H13.6667V9.66667C13.6667 9.48986 13.5964 9.32029 13.4714 9.19526C13.3464 9.07024 13.1768 9 13 9C12.8232 9 12.6536 9.07024 12.5286 9.19526C12.4036 9.32029 12.3333 9.48986 12.3333 9.66667V12.3333H9.66667C9.48986 12.3333 9.32029 12.4036 9.19526 12.5286C9.07024 12.6536 9 12.8232 9 13C9 13.1768 9.07024 13.3464 9.19526 13.4714C9.32029 13.5964 9.48986 13.6667 9.66667 13.6667H12.3333V16.3333C12.3333 16.5101 12.4036 16.6797 12.5286 16.8047C12.6536 16.9298 12.8232 17 13 17C13.1768 17 13.3464 16.9298 13.4714 16.8047C13.5964 16.6797 13.6667 16.5101 13.6667 16.3333V13.6667H16.3333C16.5101 13.6667 16.6797 13.5964 16.8047 13.4714C16.9298 13.3464 17 13.1768 17 13C17 12.8232 16.9298 12.6536 16.8047 12.5286C16.6797 12.4036 16.5101 12.3333 16.3333 12.3333Z" fill="#C1C1C1"/>
</svg>
